<svg width="60" height="60" viewBox="0 0 60 60" fill="none" xmlns="http://www.w3.org/2000/svg">
<rect x="0.5" y="0.5" width="59" height="59" rx="29.5" fill="#B0DEDA"/>
<rect x="0.5" y="0.5" width="59" height="59" rx="29.5" stroke="#47BFFF"/>
<g clip-path="url(#clip0_0_829)">
<path d="M41.6412 36.6187C40.3782 34.9237 38.5755 33.7095 36.53 33.1763L36.4662 33.1625L34.9925 35.65C34.9915 35.9812 34.8595 36.2986 34.6253 36.5328C34.3911 36.767 34.0737 36.899 33.7425 36.9C33.055 36.9 32.4925 36.3375 31.8362 34.6825V34.6425C31.8362 34.2281 31.6716 33.8307 31.3786 33.5376C31.0856 33.2446 30.6881 33.08 30.2737 33.08C29.8593 33.08 29.4619 33.2446 29.1689 33.5376C28.8759 33.8307 28.7112 34.2281 28.7112 34.6425V34.6838V34.6812C28.0112 36.3375 27.4437 36.8987 26.7575 36.8987C26.4263 36.8978 26.1089 36.7657 25.8747 36.5315C25.6405 36.2973 25.5085 35.98 25.5075 35.6487L24.08 33.1562C22.0203 33.6801 20.2009 34.891 18.9225 36.5887L18.905 36.6125C18.3996 37.4419 18.1175 38.388 18.0862 39.3587V39.3675C18.0925 39.555 18.0862 39.7737 18.0862 39.9925V42.4925C18.0862 43.1555 18.3496 43.7914 18.8185 44.2603C19.2873 44.7291 19.9232 44.9925 20.5862 44.9925H39.9612C40.6243 44.9925 41.2602 44.7291 41.729 44.2603C42.1979 43.7914 42.4612 43.1555 42.4612 42.4925V39.9925C42.4612 39.775 42.455 39.555 42.4612 39.3675C42.431 38.3853 42.144 37.4281 41.6287 36.5913L41.6425 36.6162L41.6412 36.6187ZM23.71 21.6125C23.71 25.2625 25.985 30.625 30.2725 30.625C34.485 30.625 36.835 25.2625 36.835 21.6125V21.5312C36.835 20.6695 36.6653 19.8161 36.3355 19.0199C36.0057 18.2237 35.5223 17.5002 34.9129 16.8909C34.3035 16.2815 33.5801 15.7981 32.7839 15.4683C31.9877 15.1385 31.1343 14.9688 30.2725 14.9688C29.4107 14.9688 28.5573 15.1385 27.7611 15.4683C26.9649 15.7981 26.2415 16.2815 25.6321 16.8909C25.0227 17.5002 24.5393 18.2237 24.2095 19.0199C23.8797 19.8161 23.71 20.6695 23.71 21.5312V21.6163V21.6125ZM37.7525 23.7625C37.7525 26.14 39.235 29.635 42.0275 29.635C44.7712 29.635 46.3025 26.1413 46.3025 23.7625V23.6975C46.3025 22.5634 45.852 21.4757 45.05 20.6737C44.2481 19.8718 43.1604 19.4212 42.0262 19.4212C40.8921 19.4212 39.8044 19.8718 39.0025 20.6737C38.2005 21.4757 37.75 22.5634 37.75 23.6975V23.7663V23.7625H37.7525ZM13.7525 25.7625C13.7525 28.14 15.235 31.635 18.0275 31.635C20.7712 31.635 22.3025 28.1412 22.3025 25.7625V25.6975C22.3025 24.5634 21.852 23.4757 21.05 22.6737C20.2481 21.8718 19.1604 21.4213 18.0262 21.4213C16.8921 21.4213 15.8044 21.8718 15.0025 22.6737C14.2005 23.4757 13.75 24.5634 13.75 25.6975V25.7662V25.7625H13.7525Z" fill="#003F39"/>
</g>
<defs>
<clipPath id="clip0_0_829">
<rect width="32.5" height="30" fill="white" transform="translate(13.75 15)"/>
</clipPath>
</defs>
</svg>
