<svg width="60" height="60" viewBox="0 0 60 60" fill="none" xmlns="http://www.w3.org/2000/svg">
<rect x="0.5" y="0.5" width="59" height="59" rx="29.5" fill="#B0DEDA"/>
<rect x="0.5" y="0.5" width="59" height="59" rx="29.5" stroke="#47BFFF"/>
<path d="M35.625 27.9062L39.0625 25.9063C39.2708 25.7813 39.375 25.6042 39.375 25.375C39.375 25.1458 39.2708 24.9688 39.0625 24.8438L35.625 22.8438C35.4375 22.7396 35.2292 22.6875 35 22.6875C34.7708 22.6875 34.5625 22.7396 34.375 22.8438L30.9375 24.8438C30.7292 24.9688 30.625 25.1458 30.625 25.375C30.625 25.6042 30.7292 25.7813 30.9375 25.9063L34.375 27.9062C34.5625 28.0104 34.7708 28.0625 35 28.0625C35.2292 28.0625 35.4375 28.0104 35.625 27.9062ZM35.625 31.6875L37.8125 30.4375C38 30.3333 38.1513 30.1825 38.2663 29.985C38.3813 29.7875 38.4383 29.5738 38.4375 29.3438V27.4375L35.625 29.0625C35.4375 29.1667 35.2292 29.2188 35 29.2188C34.7708 29.2188 34.5625 29.1667 34.375 29.0625L31.5625 27.4375V29.3438C31.5625 29.5729 31.62 29.7867 31.735 29.985C31.85 30.1833 32.0008 30.3342 32.1875 30.4375L34.375 31.6875C34.5625 31.7917 34.7708 31.8438 35 31.8438C35.2292 31.8438 35.4375 31.7917 35.625 31.6875ZM34.7813 40C34.4896 40 34.245 39.8908 34.0475 39.6725C33.85 39.4542 33.7404 39.1987 33.7188 38.9062C33.5938 36.9271 33.1408 35.0783 32.36 33.36C31.5792 31.6417 30.5583 30.1154 29.2975 28.7812C28.0367 27.4471 26.5675 26.3533 24.89 25.5C23.2125 24.6467 21.4058 24.105 19.47 23.875C18.9283 23.8125 18.465 23.5992 18.08 23.235C17.695 22.8708 17.5017 22.4175 17.5 21.875C17.4983 21.3325 17.6913 20.8846 18.0788 20.5313C18.4663 20.1779 18.9296 20.0008 19.4688 20H40C40.6875 20 41.2763 20.245 41.7663 20.735C42.2563 21.225 42.5008 21.8133 42.5 22.5V37.5C42.5 38.1875 42.2554 38.7763 41.7663 39.2663C41.2771 39.7563 40.6883 40.0008 40 40H34.7813ZM25 40C24.6667 40 24.375 39.9008 24.125 39.7025C23.875 39.5042 23.7188 39.2388 23.6563 38.9062C23.4271 37.5938 22.8388 36.4792 21.8913 35.5625C20.9438 34.6458 19.8133 34.0729 18.5 33.8438C18.1875 33.8021 17.9429 33.6513 17.7663 33.3913C17.5896 33.1313 17.5008 32.8342 17.5 32.5C17.5 32.1458 17.6146 31.8492 17.8438 31.61C18.0729 31.3708 18.3438 31.2717 18.6563 31.3125C20.6146 31.5625 22.2867 32.3854 23.6725 33.7812C25.0583 35.1771 25.8863 36.8542 26.1563 38.8125C26.1979 39.1458 26.1042 39.4271 25.875 39.6562C25.6458 39.8854 25.3542 40 25 40ZM30 40C29.6458 40 29.3492 39.8854 29.11 39.6562C28.8708 39.4271 28.73 39.1354 28.6875 38.7812C28.3958 36.1146 27.3075 33.8542 25.4225 32C23.5375 30.1458 21.2613 29.0833 18.5938 28.8125C18.2604 28.7708 17.9946 28.625 17.7963 28.375C17.5979 28.125 17.4992 27.8333 17.5 27.5C17.5 27.1458 17.6096 26.8437 17.8288 26.5937C18.0479 26.3437 18.3133 26.2396 18.625 26.2812C21.9792 26.5521 24.8333 27.8542 27.1875 30.1875C29.5417 32.5208 30.875 35.3646 31.1875 38.7188C31.2292 39.0729 31.13 39.375 30.89 39.625C30.65 39.875 30.3533 40 30 40ZM19.0625 40C18.625 40 18.255 39.8487 17.9525 39.5462C17.65 39.2437 17.4992 38.8742 17.5 38.4375C17.5008 38.0008 17.6521 37.6308 17.9538 37.3275C18.2554 37.0242 18.625 36.8733 19.0625 36.875C19.5 36.8767 19.87 37.0279 20.1725 37.3288C20.475 37.6296 20.6258 37.9992 20.625 38.4375C20.6242 38.8758 20.4729 39.2458 20.1713 39.5475C19.8696 39.8492 19.5 40 19.0625 40Z" fill="#003F39"/>
</svg>
