<svg width="60" height="60" viewBox="0 0 60 60" fill="none" xmlns="http://www.w3.org/2000/svg">
<rect x="0.5" y="0.5" width="59" height="59" rx="29.5" fill="#B0DEDA"/>
<rect x="0.5" y="0.5" width="59" height="59" rx="29.5" stroke="#47BFFF"/>
<g clip-path="url(#clip0_0_820)">
<path fill-rule="evenodd" clip-rule="evenodd" d="M31.1292 34.9949C32.3721 34.2762 33.4579 33.315 34.322 32.1685C34.0435 31.7353 33.8454 31.2555 33.737 30.752L33.6963 30.5635C33.5796 30.0251 33.3047 29.5339 32.9068 29.1528C32.509 28.7718 32.0064 28.5183 31.4635 28.4249C27.0235 27.6535 27.0235 21.2806 31.4635 20.507C31.9878 20.4168 32.475 20.1771 32.8665 19.8168C33.2581 19.4564 33.5373 18.9907 33.6706 18.4756C32.6265 17.3379 31.3489 16.4393 29.9252 15.8414C28.5014 15.2435 26.9653 14.9604 25.422 15.0115C23.8787 15.0626 22.3646 15.4467 20.9836 16.1375C19.6025 16.8282 18.3871 17.8094 17.4206 19.0137C16.454 20.2179 15.7593 21.6169 15.3838 23.1148C15.0083 24.6126 14.9611 26.1739 15.2453 27.6917C15.5294 29.2095 16.1383 30.6479 17.0302 31.9085C17.9222 33.169 19.076 34.2219 20.4127 34.9949V37.4999C20.4127 38.0682 20.6385 38.6133 21.0404 39.0151C21.4422 39.417 21.9873 39.6428 22.5556 39.6428H28.9842C29.5525 39.6428 30.0975 39.417 30.4994 39.0151C30.9013 38.6133 31.127 38.0682 31.127 37.4999L31.1292 34.9949ZM20.4149 43.3928C20.4149 42.9665 20.5842 42.5577 20.8856 42.2563C21.187 41.9549 21.5958 41.7856 22.022 41.7856H29.522C29.9483 41.7856 30.3571 41.9549 30.6585 42.2563C30.9599 42.5577 31.1292 42.9665 31.1292 43.3928C31.1292 43.819 30.9599 44.2278 30.6585 44.5292C30.3571 44.8306 29.9483 44.9999 29.522 44.9999H22.022C21.5958 44.9999 21.187 44.8306 20.8856 44.5292C20.5842 44.2278 20.4149 43.819 20.4149 43.3928ZM36.0149 18.6792C36.407 16.8878 38.957 16.877 39.3642 18.6642L39.3835 18.7499L39.422 18.917C39.6533 19.8959 40.1666 20.7854 40.8982 21.4755C41.6299 22.1657 42.5478 22.6261 43.5385 22.7999C45.407 23.1256 45.407 25.8085 43.5385 26.1342C42.5421 26.3087 41.6193 26.7733 40.8856 27.4696C40.1519 28.166 39.6398 29.0633 39.4135 30.0492L39.3642 30.2678C38.957 32.057 36.4049 32.0463 36.0106 30.2528L35.9699 30.0663C35.7539 29.0766 35.248 28.1737 34.5168 27.4726C33.7855 26.7715 32.8621 26.3041 31.8642 26.1299C29.9977 25.8063 29.9977 23.1278 31.8642 22.802C32.8586 22.6291 33.7794 22.165 34.5098 21.4684C35.2403 20.7719 35.7477 19.8743 35.9677 18.8892L35.9999 18.7499L36.0149 18.6792Z" fill="#003F39"/>
</g>
<defs>
<clipPath id="clip0_0_820">
<rect width="30" height="30" fill="white" transform="translate(15 15)"/>
</clipPath>
</defs>
</svg>
