<svg width="60" height="60" viewBox="0 0 60 60" fill="none" xmlns="http://www.w3.org/2000/svg">
<rect x="0.5" y="0.5" width="59" height="59" rx="29.5" fill="#B0DEDA"/>
<rect x="0.5" y="0.5" width="59" height="59" rx="29.5" stroke="#47BFFF"/>
<path fill-rule="evenodd" clip-rule="evenodd" d="M21.6343 16.2364L34.2986 16.2299V21.1649L21.6343 21.1714C21.0623 21.172 20.5051 20.9895 20.0443 20.6506L17.9914 19.1356C17.9241 19.0858 17.8694 19.0209 17.8316 18.9461C17.7939 18.8713 17.7743 18.7887 17.7743 18.7049C17.7743 18.6212 17.7939 18.5385 17.8316 18.4637C17.8694 18.3889 17.9241 18.324 17.9914 18.2742L20.0464 16.7571C20.5058 16.4183 21.0614 16.2351 21.6322 16.2342L21.6343 16.2364ZM39.5122 21.1606L36.9772 21.1628V16.2278H39.5207C40.8793 16.2492 41.9186 17.4556 41.9186 18.6921C41.9186 19.9306 40.8793 21.1392 39.5207 21.1606H39.5122ZM26.8029 26.1106C27.5207 26.3978 28.1314 26.7128 28.6607 27.0256V44.9999C27.8438 44.3869 26.9506 43.8827 26.0036 43.4999C24.4286 42.8699 22.1572 42.3492 18.6922 42.3492C18.408 42.3492 18.1355 42.2363 17.9345 42.0354C17.7336 41.8345 17.6207 41.5619 17.6207 41.2778V25.8749C17.6207 25.5908 17.7336 25.3182 17.9345 25.1173C18.1355 24.9164 18.408 24.8035 18.6922 24.8035C22.3779 24.8035 24.9279 25.3585 26.8029 26.1106ZM33.9943 43.4999C32.8372 43.9649 32.025 44.4985 31.3372 44.9978V27.0256C31.8664 26.7128 32.4793 26.3978 33.1972 26.1106C35.0722 25.3585 37.6222 24.8035 41.3079 24.8035C41.592 24.8035 41.8646 24.9164 42.0655 25.1173C42.2664 25.3182 42.3793 25.5908 42.3793 25.8749V41.2778C42.3793 41.5619 42.2664 41.8345 42.0655 42.0354C41.8646 42.2363 41.592 42.3492 41.3079 42.3492C37.8429 42.3492 35.5714 42.8678 33.9943 43.4999Z" fill="#245666"/>
</svg>
