<svg width="839" height="504" viewBox="0 0 839 504" fill="none" xmlns="http://www.w3.org/2000/svg">
<mask id="mask0_0_513" style="mask-type:alpha" maskUnits="userSpaceOnUse" x="0" y="0" width="839" height="504">
<path fill-rule="evenodd" clip-rule="evenodd" d="M0 0H839V503.398H0V0ZM1.31094 0.898926H103.564V71.0151H1.31094V0.898926ZM106.186 0.898926H208.439V71.0151H106.186V0.898926ZM313.314 0.898926H211.061V71.0151H313.314V0.898926ZM315.936 0.898926H418.189V71.0151H315.936V0.898926ZM523.064 0.898926H420.811V71.0151H523.064V0.898926ZM525.686 0.898926H627.939V71.0151H525.686V0.898926ZM732.814 0.898926H630.561V71.0151H732.814V0.898926ZM735.436 0.898926H837.689V71.0151H735.436V0.898926ZM103.564 72.813H1.31094V142.929H103.564V72.813ZM106.186 72.813H208.439V142.929H106.186V72.813ZM313.314 72.813H211.061V142.929H313.314V72.813ZM315.936 72.813H418.189V142.929H315.936V72.813ZM523.064 72.813H420.811V142.929H523.064V72.813ZM525.686 72.813H627.939V142.929H525.686V72.813ZM732.814 72.813H630.561V142.929H732.814V72.813ZM735.436 72.813H837.689V142.929H735.436V72.813ZM103.564 144.727H1.31094V214.843H103.564V144.727ZM106.186 144.727H208.439V214.843H106.186V144.727ZM313.314 144.727H211.061V214.843H313.314V144.727ZM315.936 144.727H418.189V214.843H315.936V144.727ZM523.064 144.727H420.811V214.843H523.064V144.727ZM525.686 144.727H627.939V214.843H525.686V144.727ZM732.814 144.727H630.561V214.843H732.814V144.727ZM735.436 144.727H837.689V214.843H735.436V144.727ZM103.564 216.641H1.31094V286.757H103.564V216.641ZM106.186 216.641H208.439V286.757H106.186V216.641ZM313.314 216.641H211.061V286.757H313.314V216.641ZM315.936 216.641H418.189V286.757H315.936V216.641ZM523.064 216.641H420.811V286.757H523.064V216.641ZM525.686 216.641H627.939V286.757H525.686V216.641ZM732.814 216.641H630.561V286.757H732.814V216.641ZM735.436 216.641H837.689V286.757H735.436V216.641ZM103.564 288.555H1.31094V358.671H103.564V288.555ZM106.186 288.555H208.439V358.671H106.186V288.555ZM313.314 288.555H211.061V358.671H313.314V288.555ZM315.936 288.555H418.189V358.671H315.936V288.555ZM523.064 288.555H420.811V358.671H523.064V288.555ZM525.686 288.555H627.939V358.671H525.686V288.555ZM732.814 288.555H630.561V358.671H732.814V288.555ZM735.436 288.555H837.689V358.671H735.436V288.555ZM103.564 360.469H1.31094V430.585H103.564V360.469ZM106.186 360.469H208.439V430.585H106.186V360.469ZM313.314 360.469H211.061V430.585H313.314V360.469ZM315.936 360.469H418.189V430.585H315.936V360.469ZM523.064 360.469H420.811V430.585H523.064V360.469ZM525.686 360.469H627.939V430.585H525.686V360.469ZM732.814 360.469H630.561V430.585H732.814V360.469ZM735.436 360.469H837.689V430.585H735.436V360.469ZM103.564 432.383H1.31094V502.499H103.564V432.383ZM106.186 432.383H208.439V502.499H106.186V432.383ZM313.314 432.383H211.061V502.499H313.314V432.383ZM315.936 432.383H418.189V502.499H315.936V432.383ZM523.064 432.383H420.811V502.499H523.064V432.383ZM525.686 432.383H627.939V502.499H525.686V432.383ZM732.814 432.383H630.561V502.499H732.814V432.383ZM735.436 432.383H837.689V502.499H735.436V432.383Z" fill="#1ACBBA"/>
</mask>
<g mask="url(#mask0_0_513)">
<ellipse cx="358.506" cy="275.132" rx="130.326" ry="132.081" fill="#57D1C6" style="mix-blend-mode:hard-light"/>
<ellipse cx="702.97" cy="89.8329" rx="88.6391" ry="89.8329" fill="#57D1C6" style="mix-blend-mode:hard-light"/>
<rect x="60.5314" y="35.7157" width="716.529" height="432.45" fill="url(#paint0_linear_0_513)" fill-opacity="0.82"/>
</g>
<defs>
<linearGradient id="paint0_linear_0_513" x1="121.55" y1="135.153" x2="726.226" y2="454.166" gradientUnits="userSpaceOnUse">
<stop offset="0.0465044" stop-color="white" stop-opacity="0.44"/>
<stop offset="1" stop-color="#767676" stop-opacity="0"/>
</linearGradient>
</defs>
</svg>
