<svg width="27" height="27" viewBox="0 0 27 27" fill="none" xmlns="http://www.w3.org/2000/svg">
<path d="M21.9448 23.0999C19.6531 23.0999 17.389 22.6005 15.1523 21.6017C12.9156 20.6029 10.8806 19.1865 9.0473 17.3524C7.21397 15.5184 5.7979 13.4834 4.7991 11.2474C3.8003 9.01149 3.30054 6.74733 3.2998 4.45493C3.2998 4.12493 3.4098 3.84993 3.6298 3.62993C3.8498 3.40993 4.1248 3.29993 4.4548 3.29993H8.9098C9.16647 3.29993 9.39564 3.38719 9.5973 3.56173C9.79897 3.73626 9.91814 3.94233 9.9548 4.17993L10.6698 8.02993C10.7065 8.32326 10.6973 8.57076 10.6423 8.77243C10.5873 8.97409 10.4865 9.14826 10.3398 9.29493L7.6723 11.9899C8.03897 12.6683 8.4742 13.3235 8.978 13.9556C9.4818 14.5878 10.0366 15.1975 10.6423 15.7849C11.2106 16.3533 11.8065 16.8805 12.4298 17.3667C13.0531 17.8529 13.7131 18.2973 14.4098 18.6999L16.9948 16.1149C17.1598 15.9499 17.3754 15.8264 17.6416 15.7442C17.9078 15.6621 18.1689 15.639 18.4248 15.6749L22.2198 16.4449C22.4765 16.5183 22.6873 16.6514 22.8523 16.8442C23.0173 17.0371 23.0998 17.2523 23.0998 17.4899V21.9449C23.0998 22.2749 22.9898 22.5499 22.7698 22.7699C22.5498 22.9899 22.2748 23.0999 21.9448 23.0999Z" fill="black"/>
</svg>
