<svg width="348" height="267" viewBox="0 0 348 267" fill="none" xmlns="http://www.w3.org/2000/svg">
<rect width="348" height="267" rx="12" fill="#F37EF9"/>
<rect x="139.974" y="63" width="126.923" height="110" rx="11" transform="rotate(25.2794 139.974 63)" fill="#FEE2FF" fill-opacity="0.73"/>
<path d="M51.5206 42.4302V66H49.2712C48.9234 66 48.63 65.9457 48.391 65.837C48.1628 65.7175 47.94 65.5219 47.7227 65.2502L35.4162 49.537C35.4814 50.2542 35.514 50.9171 35.514 51.5256V66H31.6509V42.4302H33.9492C34.1339 42.4302 34.2915 42.4411 34.4219 42.4628C34.5631 42.4737 34.6827 42.5063 34.7805 42.5606C34.8891 42.6041 34.9924 42.6747 35.0902 42.7725C35.188 42.8594 35.2966 42.979 35.4162 43.1311L47.7716 58.9095C47.739 58.5292 47.7118 58.1543 47.6901 57.7848C47.6683 57.4153 47.6575 57.073 47.6575 56.7579V42.4302H51.5206ZM61.1704 45.9184V52.4547H69.4182V55.8288H61.1704V62.4955H71.635V66H56.7694V42.4302H71.635V45.9184H61.1704ZM79.9218 45.9184V52.4547H88.1696V55.8288H79.9218V62.4955H90.3864V66H75.5208V42.4302H90.3864V45.9184H79.9218ZM110.735 46.0325H103.628V66H99.2437V46.0325H92.1369V42.4302H110.735V46.0325ZM128.421 54.2803C129.225 54.2803 129.926 54.1825 130.523 53.9869C131.121 53.7804 131.615 53.4925 132.007 53.123C132.409 52.7427 132.708 52.2863 132.903 51.7538C133.099 51.2105 133.197 50.6074 133.197 49.9445C133.197 49.3142 133.099 48.7437 132.903 48.233C132.708 47.7223 132.414 47.2876 132.023 46.929C131.632 46.5704 131.137 46.2987 130.54 46.114C129.942 45.9184 129.236 45.8206 128.421 45.8206H125.144V54.2803H128.421ZM128.421 42.4302C129.996 42.4302 131.36 42.6149 132.512 42.9844C133.664 43.3539 134.615 43.87 135.364 44.5329C136.114 45.1958 136.668 45.989 137.027 46.9127C137.397 47.8364 137.581 48.847 137.581 49.9445C137.581 51.0855 137.391 52.1341 137.011 53.0904C136.63 54.0358 136.06 54.8508 135.299 55.5354C134.539 56.22 133.582 56.7525 132.43 57.1328C131.289 57.5131 129.953 57.7033 128.421 57.7033H125.144V66H120.76V42.4302H128.421ZM160.373 54.1825V63.718C159.178 64.5982 157.901 65.2448 156.543 65.6577C155.195 66.0598 153.75 66.2608 152.207 66.2608C150.284 66.2608 148.539 65.962 146.975 65.3643C145.421 64.7666 144.09 63.9353 142.981 62.8704C141.884 61.8055 141.036 60.5341 140.438 59.0562C139.841 57.5783 139.542 55.9646 139.542 54.2151C139.542 52.4438 139.83 50.8193 140.406 49.3414C140.982 47.8635 141.797 46.5921 142.851 45.5272C143.916 44.4623 145.203 43.6364 146.714 43.0496C148.224 42.4628 149.919 42.1694 151.799 42.1694C152.756 42.1694 153.647 42.2455 154.473 42.3976C155.309 42.5497 156.081 42.7616 156.787 43.0333C157.504 43.2941 158.156 43.6147 158.743 43.995C159.33 44.3753 159.868 44.7937 160.357 45.2501L159.102 47.2387C158.906 47.5538 158.651 47.7494 158.336 47.8255C158.021 47.8907 157.678 47.8092 157.309 47.581C156.95 47.3745 156.592 47.1681 156.233 46.9616C155.874 46.7551 155.472 46.5758 155.027 46.4237C154.592 46.2716 154.098 46.1466 153.544 46.0488C153 45.951 152.37 45.9021 151.653 45.9021C150.49 45.9021 149.436 46.0977 148.491 46.4889C147.556 46.8801 146.757 47.4397 146.094 48.1678C145.432 48.8959 144.921 49.7706 144.562 50.7921C144.204 51.8136 144.024 52.9546 144.024 54.2151C144.024 55.5626 144.214 56.7688 144.595 57.8337C144.986 58.8878 145.529 59.7843 146.225 60.5232C146.931 61.2513 147.779 61.8109 148.768 62.2021C149.756 62.5824 150.859 62.7726 152.077 62.7726C152.946 62.7726 153.723 62.6802 154.407 62.4955C155.092 62.3108 155.76 62.0608 156.412 61.7457V57.4751H153.446C153.163 57.4751 152.94 57.399 152.777 57.2469C152.625 57.0839 152.549 56.8883 152.549 56.6601V54.1825H160.373Z" fill="black"/>
<circle cx="280" cy="225" r="20" fill="#FDE7FE"/>
<path d="M300.842 22.1471L307.815 53.7617L327.674 80.27L295.012 85.7688L268.159 103.853L261.186 72.2381L241.326 45.7297L273.989 40.231L300.842 22.1471Z" fill="#FFF4FF"/>
<path d="M36.603 177.578L36.594 179H28.647V166.103H36.594V167.525H30.393V171.809H35.415V173.177H30.393V177.578H36.603ZM40.2258 165.743V179H38.6238V165.743H40.2258ZM48.9257 173.447C48.9257 173.075 48.8717 172.736 48.7637 172.43C48.6617 172.118 48.5087 171.851 48.3047 171.629C48.1067 171.401 47.8637 171.227 47.5757 171.107C47.2877 170.981 46.9607 170.918 46.5947 170.918C45.8267 170.918 45.2177 171.143 44.7677 171.593C44.3237 172.037 44.0477 172.655 43.9397 173.447H48.9257ZM50.2217 177.722C50.0237 177.962 49.7867 178.172 49.5107 178.352C49.2347 178.526 48.9377 178.67 48.6197 178.784C48.3077 178.898 47.9837 178.982 47.6477 179.036C47.3117 179.096 46.9787 179.126 46.6487 179.126C46.0187 179.126 45.4367 179.021 44.9027 178.811C44.3747 178.595 43.9157 178.283 43.5257 177.875C43.1417 177.461 42.8417 176.951 42.6257 176.345C42.4097 175.739 42.3017 175.043 42.3017 174.257C42.3017 173.621 42.3977 173.027 42.5897 172.475C42.7877 171.923 43.0697 171.446 43.4357 171.044C43.8017 170.636 44.2487 170.318 44.7767 170.09C45.3047 169.856 45.8987 169.739 46.5587 169.739C47.1047 169.739 47.6087 169.832 48.0707 170.018C48.5387 170.198 48.9407 170.462 49.2767 170.81C49.6187 171.152 49.8857 171.578 50.0777 172.088C50.2697 172.592 50.3657 173.168 50.3657 173.816C50.3657 174.068 50.3387 174.236 50.2847 174.32C50.2307 174.404 50.1287 174.446 49.9787 174.446H43.8857C43.9037 175.022 43.9817 175.523 44.1197 175.949C44.2637 176.375 44.4617 176.732 44.7137 177.02C44.9657 177.302 45.2657 177.515 45.6137 177.659C45.9617 177.797 46.3517 177.866 46.7837 177.866C47.1857 177.866 47.5307 177.821 47.8187 177.731C48.1127 177.635 48.3647 177.533 48.5747 177.425C48.7847 177.317 48.9587 177.218 49.0967 177.128C49.2407 177.032 49.3637 176.984 49.4657 176.984C49.5977 176.984 49.6997 177.035 49.7717 177.137L50.2217 177.722ZM59.9521 169.883L56.2351 179H54.7951L51.0781 169.883H52.3831C52.5151 169.883 52.6231 169.916 52.7071 169.982C52.7911 170.048 52.8481 170.126 52.8781 170.216L55.1911 176.084C55.2631 176.306 55.3261 176.522 55.3801 176.732C55.4341 176.942 55.4851 177.152 55.5331 177.362C55.5811 177.152 55.6321 176.942 55.6861 176.732C55.7401 176.522 55.8061 176.306 55.8841 176.084L58.2241 170.216C58.2601 170.12 58.3201 170.042 58.4041 169.982C58.4881 169.916 58.5871 169.883 58.7011 169.883H59.9521ZM66.169 174.896C65.431 174.92 64.801 174.98 64.279 175.076C63.763 175.166 63.34 175.286 63.01 175.436C62.686 175.586 62.449 175.763 62.299 175.967C62.155 176.171 62.083 176.399 62.083 176.651C62.083 176.891 62.122 177.098 62.2 177.272C62.278 177.446 62.383 177.59 62.515 177.704C62.653 177.812 62.812 177.893 62.992 177.947C63.178 177.995 63.376 178.019 63.586 178.019C63.868 178.019 64.126 177.992 64.36 177.938C64.594 177.878 64.813 177.794 65.017 177.686C65.227 177.578 65.425 177.449 65.611 177.299C65.803 177.149 65.989 176.978 66.169 176.786V174.896ZM60.994 171.17C61.498 170.684 62.041 170.321 62.623 170.081C63.205 169.841 63.85 169.721 64.558 169.721C65.068 169.721 65.521 169.805 65.917 169.973C66.313 170.141 66.646 170.375 66.916 170.675C67.186 170.975 67.39 171.338 67.528 171.764C67.666 172.19 67.735 172.658 67.735 173.168V179H67.024C66.868 179 66.748 178.976 66.664 178.928C66.58 178.874 66.514 178.772 66.466 178.622L66.286 177.758C66.046 177.98 65.812 178.178 65.584 178.352C65.356 178.52 65.116 178.664 64.864 178.784C64.612 178.898 64.342 178.985 64.054 179.045C63.772 179.111 63.457 179.144 63.109 179.144C62.755 179.144 62.422 179.096 62.11 179C61.798 178.898 61.525 178.748 61.291 178.55C61.063 178.352 60.88 178.103 60.742 177.803C60.61 177.497 60.544 177.137 60.544 176.723C60.544 176.363 60.643 176.018 60.841 175.688C61.039 175.352 61.36 175.055 61.804 174.797C62.248 174.539 62.827 174.329 63.541 174.167C64.255 173.999 65.131 173.903 66.169 173.879V173.168C66.169 172.46 66.016 171.926 65.71 171.566C65.404 171.2 64.957 171.017 64.369 171.017C63.973 171.017 63.64 171.068 63.37 171.17C63.106 171.266 62.875 171.377 62.677 171.503C62.485 171.623 62.317 171.734 62.173 171.836C62.035 171.932 61.897 171.98 61.759 171.98C61.651 171.98 61.558 171.953 61.48 171.899C61.402 171.839 61.336 171.767 61.282 171.683L60.994 171.17ZM72.8512 179.144C72.1312 179.144 71.5762 178.943 71.1862 178.541C70.8022 178.139 70.6102 177.56 70.6102 176.804V171.224H69.5122C69.4162 171.224 69.3352 171.197 69.2692 171.143C69.2032 171.083 69.1702 170.993 69.1702 170.873V170.234L70.6642 170.045L71.0332 167.228C71.0512 167.138 71.0902 167.066 71.1502 167.012C71.2162 166.952 71.3002 166.922 71.4022 166.922H72.2122V170.063H74.8492V171.224H72.2122V176.696C72.2122 177.08 72.3052 177.365 72.4912 177.551C72.6772 177.737 72.9172 177.83 73.2112 177.83C73.3792 177.83 73.5232 177.809 73.6432 177.767C73.7692 177.719 73.8772 177.668 73.9672 177.614C74.0572 177.56 74.1322 177.512 74.1922 177.47C74.2582 177.422 74.3152 177.398 74.3632 177.398C74.4472 177.398 74.5222 177.449 74.5882 177.551L75.0562 178.316C74.7802 178.574 74.4472 178.778 74.0572 178.928C73.6672 179.072 73.2652 179.144 72.8512 179.144ZM82.5526 173.447C82.5526 173.075 82.4986 172.736 82.3906 172.43C82.2886 172.118 82.1356 171.851 81.9316 171.629C81.7336 171.401 81.4906 171.227 81.2026 171.107C80.9146 170.981 80.5876 170.918 80.2216 170.918C79.4536 170.918 78.8446 171.143 78.3946 171.593C77.9506 172.037 77.6746 172.655 77.5666 173.447H82.5526ZM83.8486 177.722C83.6506 177.962 83.4136 178.172 83.1376 178.352C82.8616 178.526 82.5646 178.67 82.2466 178.784C81.9346 178.898 81.6106 178.982 81.2746 179.036C80.9386 179.096 80.6056 179.126 80.2756 179.126C79.6456 179.126 79.0636 179.021 78.5296 178.811C78.0016 178.595 77.5426 178.283 77.1526 177.875C76.7686 177.461 76.4686 176.951 76.2526 176.345C76.0366 175.739 75.9286 175.043 75.9286 174.257C75.9286 173.621 76.0246 173.027 76.2166 172.475C76.4146 171.923 76.6966 171.446 77.0626 171.044C77.4286 170.636 77.8756 170.318 78.4036 170.09C78.9316 169.856 79.5256 169.739 80.1856 169.739C80.7316 169.739 81.2356 169.832 81.6976 170.018C82.1656 170.198 82.5676 170.462 82.9036 170.81C83.2456 171.152 83.5126 171.578 83.7046 172.088C83.8966 172.592 83.9926 173.168 83.9926 173.816C83.9926 174.068 83.9656 174.236 83.9116 174.32C83.8576 174.404 83.7556 174.446 83.6056 174.446H77.5126C77.5306 175.022 77.6086 175.523 77.7466 175.949C77.8906 176.375 78.0886 176.732 78.3406 177.02C78.5926 177.302 78.8926 177.515 79.2406 177.659C79.5886 177.797 79.9786 177.866 80.4106 177.866C80.8126 177.866 81.1576 177.821 81.4456 177.731C81.7396 177.635 81.9916 177.533 82.2016 177.425C82.4116 177.317 82.5856 177.218 82.7236 177.128C82.8676 177.032 82.9906 176.984 83.0926 176.984C83.2246 176.984 83.3266 177.035 83.3986 177.137L83.8486 177.722ZM97.9748 169.883L92.8898 181.691C92.8358 181.811 92.7668 181.907 92.6828 181.979C92.6048 182.051 92.4818 182.087 92.3138 182.087H91.1258L92.7908 178.469L89.0288 169.883H90.4148C90.5528 169.883 90.6608 169.919 90.7388 169.991C90.8228 170.057 90.8798 170.132 90.9098 170.216L93.3488 175.958C93.4448 176.21 93.5258 176.474 93.5918 176.75C93.6758 176.468 93.7658 176.201 93.8618 175.949L96.2288 170.216C96.2648 170.12 96.3248 170.042 96.4088 169.982C96.4988 169.916 96.5978 169.883 96.7058 169.883H97.9748ZM102.987 169.739C103.653 169.739 104.253 169.85 104.787 170.072C105.321 170.294 105.777 170.609 106.155 171.017C106.533 171.425 106.821 171.92 107.019 172.502C107.223 173.078 107.325 173.723 107.325 174.437C107.325 175.157 107.223 175.805 107.019 176.381C106.821 176.957 106.533 177.449 106.155 177.857C105.777 178.265 105.321 178.58 104.787 178.802C104.253 179.018 103.653 179.126 102.987 179.126C102.315 179.126 101.709 179.018 101.169 178.802C100.635 178.58 100.179 178.265 99.801 177.857C99.423 177.449 99.132 176.957 98.928 176.381C98.73 175.805 98.631 175.157 98.631 174.437C98.631 173.723 98.73 173.078 98.928 172.502C99.132 171.92 99.423 171.425 99.801 171.017C100.179 170.609 100.635 170.294 101.169 170.072C101.709 169.85 102.315 169.739 102.987 169.739ZM102.987 177.875C103.887 177.875 104.559 177.575 105.003 176.975C105.447 176.369 105.669 175.526 105.669 174.446C105.669 173.36 105.447 172.514 105.003 171.908C104.559 171.302 103.887 170.999 102.987 170.999C102.531 170.999 102.132 171.077 101.79 171.233C101.454 171.389 101.172 171.614 100.944 171.908C100.722 172.202 100.554 172.565 100.44 172.997C100.332 173.423 100.278 173.906 100.278 174.446C100.278 175.526 100.5 176.369 100.944 176.975C101.394 177.575 102.075 177.875 102.987 177.875ZM116.854 169.883V179H115.9C115.672 179 115.528 178.889 115.468 178.667L115.342 177.686C114.946 178.124 114.502 178.478 114.01 178.748C113.518 179.012 112.954 179.144 112.318 179.144C111.82 179.144 111.379 179.063 110.995 178.901C110.617 178.733 110.299 178.499 110.041 178.199C109.783 177.899 109.588 177.536 109.456 177.11C109.33 176.684 109.267 176.213 109.267 175.697V169.883H110.869V175.697C110.869 176.387 111.025 176.921 111.337 177.299C111.655 177.677 112.138 177.866 112.786 177.866C113.26 177.866 113.701 177.755 114.109 177.533C114.523 177.305 114.904 176.993 115.252 176.597V169.883H116.854ZM120.915 171.71C121.203 171.086 121.557 170.6 121.977 170.252C122.397 169.898 122.91 169.721 123.516 169.721C123.708 169.721 123.891 169.742 124.065 169.784C124.245 169.826 124.404 169.892 124.542 169.982L124.425 171.179C124.389 171.329 124.299 171.404 124.155 171.404C124.071 171.404 123.948 171.386 123.786 171.35C123.624 171.314 123.441 171.296 123.237 171.296C122.949 171.296 122.691 171.338 122.463 171.422C122.241 171.506 122.04 171.632 121.86 171.8C121.686 171.962 121.527 172.166 121.383 172.412C121.245 172.652 121.119 172.928 121.005 173.24V179H119.394V169.883H120.312C120.486 169.883 120.606 169.916 120.672 169.982C120.738 170.048 120.783 170.162 120.807 170.324L120.915 171.71ZM130.169 179V169.883H131.132C131.36 169.883 131.501 169.994 131.555 170.216L131.672 171.152C132.008 170.738 132.386 170.399 132.806 170.135C133.226 169.871 133.712 169.739 134.264 169.739C134.876 169.739 135.371 169.91 135.749 170.252C136.133 170.594 136.409 171.056 136.577 171.638C136.709 171.308 136.877 171.023 137.081 170.783C137.291 170.543 137.525 170.345 137.783 170.189C138.041 170.033 138.314 169.919 138.602 169.847C138.896 169.775 139.193 169.739 139.493 169.739C139.973 169.739 140.399 169.817 140.771 169.973C141.149 170.123 141.467 170.345 141.725 170.639C141.989 170.933 142.19 171.296 142.328 171.728C142.466 172.154 142.535 172.643 142.535 173.195V179H140.924V173.195C140.924 172.481 140.768 171.941 140.456 171.575C140.144 171.203 139.694 171.017 139.106 171.017C138.842 171.017 138.59 171.065 138.35 171.161C138.116 171.251 137.909 171.386 137.729 171.566C137.549 171.746 137.405 171.974 137.297 172.25C137.195 172.52 137.144 172.835 137.144 173.195V179H135.533V173.195C135.533 172.463 135.386 171.917 135.092 171.557C134.798 171.197 134.369 171.017 133.805 171.017C133.409 171.017 133.043 171.125 132.707 171.341C132.371 171.551 132.062 171.839 131.78 172.205V179H130.169ZM151.072 173.447C151.072 173.075 151.018 172.736 150.91 172.43C150.808 172.118 150.655 171.851 150.451 171.629C150.253 171.401 150.01 171.227 149.722 171.107C149.434 170.981 149.107 170.918 148.741 170.918C147.973 170.918 147.364 171.143 146.914 171.593C146.47 172.037 146.194 172.655 146.086 173.447H151.072ZM152.368 177.722C152.17 177.962 151.933 178.172 151.657 178.352C151.381 178.526 151.084 178.67 150.766 178.784C150.454 178.898 150.13 178.982 149.794 179.036C149.458 179.096 149.125 179.126 148.795 179.126C148.165 179.126 147.583 179.021 147.049 178.811C146.521 178.595 146.062 178.283 145.672 177.875C145.288 177.461 144.988 176.951 144.772 176.345C144.556 175.739 144.448 175.043 144.448 174.257C144.448 173.621 144.544 173.027 144.736 172.475C144.934 171.923 145.216 171.446 145.582 171.044C145.948 170.636 146.395 170.318 146.923 170.09C147.451 169.856 148.045 169.739 148.705 169.739C149.251 169.739 149.755 169.832 150.217 170.018C150.685 170.198 151.087 170.462 151.423 170.81C151.765 171.152 152.032 171.578 152.224 172.088C152.416 172.592 152.512 173.168 152.512 173.816C152.512 174.068 152.485 174.236 152.431 174.32C152.377 174.404 152.275 174.446 152.125 174.446H146.032C146.05 175.022 146.128 175.523 146.266 175.949C146.41 176.375 146.608 176.732 146.86 177.02C147.112 177.302 147.412 177.515 147.76 177.659C148.108 177.797 148.498 177.866 148.93 177.866C149.332 177.866 149.677 177.821 149.965 177.731C150.259 177.635 150.511 177.533 150.721 177.425C150.931 177.317 151.105 177.218 151.243 177.128C151.387 177.032 151.51 176.984 151.612 176.984C151.744 176.984 151.846 177.035 151.918 177.137L152.368 177.722ZM160.42 172.052C160.12 171.65 159.796 171.371 159.448 171.215C159.1 171.053 158.71 170.972 158.278 170.972C157.432 170.972 156.781 171.275 156.325 171.881C155.869 172.487 155.641 173.351 155.641 174.473C155.641 175.067 155.692 175.577 155.794 176.003C155.896 176.423 156.046 176.771 156.244 177.047C156.442 177.317 156.685 177.515 156.973 177.641C157.261 177.767 157.588 177.83 157.954 177.83C158.482 177.83 158.941 177.71 159.331 177.47C159.727 177.23 160.09 176.891 160.42 176.453V172.052ZM162.022 165.743V179H161.068C160.84 179 160.696 178.889 160.636 178.667L160.492 177.56C160.102 178.028 159.658 178.406 159.16 178.694C158.662 178.982 158.086 179.126 157.432 179.126C156.91 179.126 156.436 179.027 156.01 178.829C155.584 178.625 155.221 178.328 154.921 177.938C154.621 177.548 154.39 177.062 154.228 176.48C154.066 175.898 153.985 175.229 153.985 174.473C153.985 173.801 154.075 173.177 154.255 172.601C154.435 172.019 154.693 171.515 155.029 171.089C155.365 170.663 155.776 170.33 156.262 170.09C156.754 169.844 157.306 169.721 157.918 169.721C158.476 169.721 158.953 169.817 159.349 170.009C159.751 170.195 160.108 170.456 160.42 170.792V165.743H162.022ZM166.244 169.883V179H164.642V169.883H166.244ZM166.586 167.021C166.586 167.177 166.553 167.324 166.487 167.462C166.427 167.594 166.343 167.714 166.235 167.822C166.133 167.924 166.01 168.005 165.866 168.065C165.728 168.125 165.581 168.155 165.425 168.155C165.269 168.155 165.122 168.125 164.984 168.065C164.852 168.005 164.735 167.924 164.633 167.822C164.531 167.714 164.45 167.594 164.39 167.462C164.33 167.324 164.3 167.177 164.3 167.021C164.3 166.865 164.33 166.718 164.39 166.58C164.45 166.436 164.531 166.313 164.633 166.211C164.735 166.103 164.852 166.019 164.984 165.959C165.122 165.899 165.269 165.869 165.425 165.869C165.581 165.869 165.728 165.899 165.866 165.959C166.01 166.019 166.133 166.103 166.235 166.211C166.343 166.313 166.427 166.436 166.487 166.58C166.553 166.718 166.586 166.865 166.586 167.021ZM175.221 171.503C175.173 171.569 175.125 171.62 175.077 171.656C175.029 171.692 174.963 171.71 174.879 171.71C174.789 171.71 174.69 171.674 174.582 171.602C174.474 171.524 174.339 171.44 174.177 171.35C174.021 171.26 173.826 171.179 173.592 171.107C173.364 171.029 173.082 170.99 172.746 170.99C172.296 170.99 171.9 171.071 171.558 171.233C171.216 171.389 170.928 171.617 170.694 171.917C170.466 172.217 170.292 172.58 170.172 173.006C170.058 173.432 170.001 173.909 170.001 174.437C170.001 174.989 170.064 175.481 170.19 175.913C170.316 176.339 170.493 176.699 170.721 176.993C170.955 177.281 171.234 177.503 171.558 177.659C171.888 177.809 172.257 177.884 172.665 177.884C173.055 177.884 173.376 177.839 173.628 177.749C173.88 177.653 174.087 177.548 174.249 177.434C174.417 177.32 174.555 177.218 174.663 177.128C174.777 177.032 174.888 176.984 174.996 176.984C175.128 176.984 175.23 177.035 175.302 177.137L175.752 177.722C175.554 177.968 175.329 178.178 175.077 178.352C174.825 178.526 174.552 178.673 174.258 178.793C173.97 178.907 173.667 178.991 173.349 179.045C173.031 179.099 172.707 179.126 172.377 179.126C171.807 179.126 171.276 179.021 170.784 178.811C170.298 178.601 169.875 178.298 169.515 177.902C169.155 177.5 168.873 177.008 168.669 176.426C168.465 175.844 168.363 175.181 168.363 174.437C168.363 173.759 168.456 173.132 168.642 172.556C168.834 171.98 169.11 171.485 169.47 171.071C169.836 170.651 170.283 170.324 170.811 170.09C171.345 169.856 171.957 169.739 172.647 169.739C173.289 169.739 173.853 169.844 174.339 170.054C174.831 170.258 175.266 170.549 175.644 170.927L175.221 171.503ZM182.413 174.896C181.675 174.92 181.045 174.98 180.523 175.076C180.007 175.166 179.584 175.286 179.254 175.436C178.93 175.586 178.693 175.763 178.543 175.967C178.399 176.171 178.327 176.399 178.327 176.651C178.327 176.891 178.366 177.098 178.444 177.272C178.522 177.446 178.627 177.59 178.759 177.704C178.897 177.812 179.056 177.893 179.236 177.947C179.422 177.995 179.62 178.019 179.83 178.019C180.112 178.019 180.37 177.992 180.604 177.938C180.838 177.878 181.057 177.794 181.261 177.686C181.471 177.578 181.669 177.449 181.855 177.299C182.047 177.149 182.233 176.978 182.413 176.786V174.896ZM177.238 171.17C177.742 170.684 178.285 170.321 178.867 170.081C179.449 169.841 180.094 169.721 180.802 169.721C181.312 169.721 181.765 169.805 182.161 169.973C182.557 170.141 182.89 170.375 183.16 170.675C183.43 170.975 183.634 171.338 183.772 171.764C183.91 172.19 183.979 172.658 183.979 173.168V179H183.268C183.112 179 182.992 178.976 182.908 178.928C182.824 178.874 182.758 178.772 182.71 178.622L182.53 177.758C182.29 177.98 182.056 178.178 181.828 178.352C181.6 178.52 181.36 178.664 181.108 178.784C180.856 178.898 180.586 178.985 180.298 179.045C180.016 179.111 179.701 179.144 179.353 179.144C178.999 179.144 178.666 179.096 178.354 179C178.042 178.898 177.769 178.748 177.535 178.55C177.307 178.352 177.124 178.103 176.986 177.803C176.854 177.497 176.788 177.137 176.788 176.723C176.788 176.363 176.887 176.018 177.085 175.688C177.283 175.352 177.604 175.055 178.048 174.797C178.492 174.539 179.071 174.329 179.785 174.167C180.499 173.999 181.375 173.903 182.413 173.879V173.168C182.413 172.46 182.26 171.926 181.954 171.566C181.648 171.2 181.201 171.017 180.613 171.017C180.217 171.017 179.884 171.068 179.614 171.17C179.35 171.266 179.119 171.377 178.921 171.503C178.729 171.623 178.561 171.734 178.417 171.836C178.279 171.932 178.141 171.98 178.003 171.98C177.895 171.98 177.802 171.953 177.724 171.899C177.646 171.839 177.58 171.767 177.526 171.683L177.238 171.17ZM188.075 165.743V179H186.473V165.743H188.075ZM201.624 171.503C201.576 171.569 201.528 171.62 201.48 171.656C201.432 171.692 201.366 171.71 201.282 171.71C201.192 171.71 201.093 171.674 200.985 171.602C200.877 171.524 200.742 171.44 200.58 171.35C200.424 171.26 200.229 171.179 199.995 171.107C199.767 171.029 199.485 170.99 199.149 170.99C198.699 170.99 198.303 171.071 197.961 171.233C197.619 171.389 197.331 171.617 197.097 171.917C196.869 172.217 196.695 172.58 196.575 173.006C196.461 173.432 196.404 173.909 196.404 174.437C196.404 174.989 196.467 175.481 196.593 175.913C196.719 176.339 196.896 176.699 197.124 176.993C197.358 177.281 197.637 177.503 197.961 177.659C198.291 177.809 198.66 177.884 199.068 177.884C199.458 177.884 199.779 177.839 200.031 177.749C200.283 177.653 200.49 177.548 200.652 177.434C200.82 177.32 200.958 177.218 201.066 177.128C201.18 177.032 201.291 176.984 201.399 176.984C201.531 176.984 201.633 177.035 201.705 177.137L202.155 177.722C201.957 177.968 201.732 178.178 201.48 178.352C201.228 178.526 200.955 178.673 200.661 178.793C200.373 178.907 200.07 178.991 199.752 179.045C199.434 179.099 199.11 179.126 198.78 179.126C198.21 179.126 197.679 179.021 197.187 178.811C196.701 178.601 196.278 178.298 195.918 177.902C195.558 177.5 195.276 177.008 195.072 176.426C194.868 175.844 194.766 175.181 194.766 174.437C194.766 173.759 194.859 173.132 195.045 172.556C195.237 171.98 195.513 171.485 195.873 171.071C196.239 170.651 196.686 170.324 197.214 170.09C197.748 169.856 198.36 169.739 199.05 169.739C199.692 169.739 200.256 169.844 200.742 170.054C201.234 170.258 201.669 170.549 202.047 170.927L201.624 171.503ZM208.815 174.896C208.077 174.92 207.447 174.98 206.925 175.076C206.409 175.166 205.986 175.286 205.656 175.436C205.332 175.586 205.095 175.763 204.945 175.967C204.801 176.171 204.729 176.399 204.729 176.651C204.729 176.891 204.768 177.098 204.846 177.272C204.924 177.446 205.029 177.59 205.161 177.704C205.299 177.812 205.458 177.893 205.638 177.947C205.824 177.995 206.022 178.019 206.232 178.019C206.514 178.019 206.772 177.992 207.006 177.938C207.24 177.878 207.459 177.794 207.663 177.686C207.873 177.578 208.071 177.449 208.257 177.299C208.449 177.149 208.635 176.978 208.815 176.786V174.896ZM203.64 171.17C204.144 170.684 204.687 170.321 205.269 170.081C205.851 169.841 206.496 169.721 207.204 169.721C207.714 169.721 208.167 169.805 208.563 169.973C208.959 170.141 209.292 170.375 209.562 170.675C209.832 170.975 210.036 171.338 210.174 171.764C210.312 172.19 210.381 172.658 210.381 173.168V179H209.67C209.514 179 209.394 178.976 209.31 178.928C209.226 178.874 209.16 178.772 209.112 178.622L208.932 177.758C208.692 177.98 208.458 178.178 208.23 178.352C208.002 178.52 207.762 178.664 207.51 178.784C207.258 178.898 206.988 178.985 206.7 179.045C206.418 179.111 206.103 179.144 205.755 179.144C205.401 179.144 205.068 179.096 204.756 179C204.444 178.898 204.171 178.748 203.937 178.55C203.709 178.352 203.526 178.103 203.388 177.803C203.256 177.497 203.19 177.137 203.19 176.723C203.19 176.363 203.289 176.018 203.487 175.688C203.685 175.352 204.006 175.055 204.45 174.797C204.894 174.539 205.473 174.329 206.187 174.167C206.901 173.999 207.777 173.903 208.815 173.879V173.168C208.815 172.46 208.662 171.926 208.356 171.566C208.05 171.2 207.603 171.017 207.015 171.017C206.619 171.017 206.286 171.068 206.016 171.17C205.752 171.266 205.521 171.377 205.323 171.503C205.131 171.623 204.963 171.734 204.819 171.836C204.681 171.932 204.543 171.98 204.405 171.98C204.297 171.98 204.204 171.953 204.126 171.899C204.048 171.839 203.982 171.767 203.928 171.683L203.64 171.17ZM214.343 171.71C214.631 171.086 214.985 170.6 215.405 170.252C215.825 169.898 216.338 169.721 216.944 169.721C217.136 169.721 217.319 169.742 217.493 169.784C217.673 169.826 217.832 169.892 217.97 169.982L217.853 171.179C217.817 171.329 217.727 171.404 217.583 171.404C217.499 171.404 217.376 171.386 217.214 171.35C217.052 171.314 216.869 171.296 216.665 171.296C216.377 171.296 216.119 171.338 215.891 171.422C215.669 171.506 215.468 171.632 215.288 171.8C215.114 171.962 214.955 172.166 214.811 172.412C214.673 172.652 214.547 172.928 214.433 173.24V179H212.822V169.883H213.74C213.914 169.883 214.034 169.916 214.1 169.982C214.166 170.048 214.211 170.162 214.235 170.324L214.343 171.71ZM225.111 173.447C225.111 173.075 225.057 172.736 224.949 172.43C224.847 172.118 224.694 171.851 224.49 171.629C224.292 171.401 224.049 171.227 223.761 171.107C223.473 170.981 223.146 170.918 222.78 170.918C222.012 170.918 221.403 171.143 220.953 171.593C220.509 172.037 220.233 172.655 220.125 173.447H225.111ZM226.407 177.722C226.209 177.962 225.972 178.172 225.696 178.352C225.42 178.526 225.123 178.67 224.805 178.784C224.493 178.898 224.169 178.982 223.833 179.036C223.497 179.096 223.164 179.126 222.834 179.126C222.204 179.126 221.622 179.021 221.088 178.811C220.56 178.595 220.101 178.283 219.711 177.875C219.327 177.461 219.027 176.951 218.811 176.345C218.595 175.739 218.487 175.043 218.487 174.257C218.487 173.621 218.583 173.027 218.775 172.475C218.973 171.923 219.255 171.446 219.621 171.044C219.987 170.636 220.434 170.318 220.962 170.09C221.49 169.856 222.084 169.739 222.744 169.739C223.29 169.739 223.794 169.832 224.256 170.018C224.724 170.198 225.126 170.462 225.462 170.81C225.804 171.152 226.071 171.578 226.263 172.088C226.455 172.592 226.551 173.168 226.551 173.816C226.551 174.068 226.524 174.236 226.47 174.32C226.416 174.404 226.314 174.446 226.164 174.446H220.071C220.089 175.022 220.167 175.523 220.305 175.949C220.449 176.375 220.647 176.732 220.899 177.02C221.151 177.302 221.451 177.515 221.799 177.659C222.147 177.797 222.537 177.866 222.969 177.866C223.371 177.866 223.716 177.821 224.004 177.731C224.298 177.635 224.55 177.533 224.76 177.425C224.97 177.317 225.144 177.218 225.282 177.128C225.426 177.032 225.549 176.984 225.651 176.984C225.783 176.984 225.885 177.035 225.957 177.137L226.407 177.722ZM234.621 173.447C234.621 173.075 234.567 172.736 234.459 172.43C234.357 172.118 234.204 171.851 234 171.629C233.802 171.401 233.559 171.227 233.271 171.107C232.983 170.981 232.656 170.918 232.29 170.918C231.522 170.918 230.913 171.143 230.463 171.593C230.019 172.037 229.743 172.655 229.635 173.447H234.621ZM235.917 177.722C235.719 177.962 235.482 178.172 235.206 178.352C234.93 178.526 234.633 178.67 234.315 178.784C234.003 178.898 233.679 178.982 233.343 179.036C233.007 179.096 232.674 179.126 232.344 179.126C231.714 179.126 231.132 179.021 230.598 178.811C230.07 178.595 229.611 178.283 229.221 177.875C228.837 177.461 228.537 176.951 228.321 176.345C228.105 175.739 227.997 175.043 227.997 174.257C227.997 173.621 228.093 173.027 228.285 172.475C228.483 171.923 228.765 171.446 229.131 171.044C229.497 170.636 229.944 170.318 230.472 170.09C231 169.856 231.594 169.739 232.254 169.739C232.8 169.739 233.304 169.832 233.766 170.018C234.234 170.198 234.636 170.462 234.972 170.81C235.314 171.152 235.581 171.578 235.773 172.088C235.965 172.592 236.061 173.168 236.061 173.816C236.061 174.068 236.034 174.236 235.98 174.32C235.926 174.404 235.824 174.446 235.674 174.446H229.581C229.599 175.022 229.677 175.523 229.815 175.949C229.959 176.375 230.157 176.732 230.409 177.02C230.661 177.302 230.961 177.515 231.309 177.659C231.657 177.797 232.047 177.866 232.479 177.866C232.881 177.866 233.226 177.821 233.514 177.731C233.808 177.635 234.06 177.533 234.27 177.425C234.48 177.317 234.654 177.218 234.792 177.128C234.936 177.032 235.059 176.984 235.161 176.984C235.293 176.984 235.395 177.035 235.467 177.137L235.917 177.722ZM239.55 171.71C239.838 171.086 240.192 170.6 240.612 170.252C241.032 169.898 241.545 169.721 242.151 169.721C242.343 169.721 242.526 169.742 242.7 169.784C242.88 169.826 243.039 169.892 243.177 169.982L243.06 171.179C243.024 171.329 242.934 171.404 242.79 171.404C242.706 171.404 242.583 171.386 242.421 171.35C242.259 171.314 242.076 171.296 241.872 171.296C241.584 171.296 241.326 171.338 241.098 171.422C240.876 171.506 240.675 171.632 240.495 171.8C240.321 171.962 240.162 172.166 240.018 172.412C239.88 172.652 239.754 172.928 239.64 173.24V179H238.029V169.883H238.947C239.121 169.883 239.241 169.916 239.307 169.982C239.373 170.048 239.418 170.162 239.442 170.324L239.55 171.71ZM261.008 169.883L258.056 179H256.787C256.631 179 256.523 178.898 256.463 178.694L254.447 172.511C254.399 172.373 254.36 172.235 254.33 172.097C254.3 171.953 254.27 171.812 254.24 171.674C254.21 171.812 254.18 171.953 254.15 172.097C254.12 172.235 254.081 172.376 254.033 172.52L251.981 178.694C251.927 178.898 251.807 179 251.621 179H250.415L247.463 169.883H248.723C248.849 169.883 248.954 169.916 249.038 169.982C249.128 170.048 249.188 170.126 249.218 170.216L250.964 176.084C251.066 176.516 251.147 176.924 251.207 177.308C251.261 177.11 251.315 176.909 251.369 176.705C251.429 176.501 251.492 176.294 251.558 176.084L253.484 170.18C253.514 170.09 253.565 170.015 253.637 169.955C253.715 169.895 253.808 169.865 253.916 169.865H254.618C254.738 169.865 254.837 169.895 254.915 169.955C254.993 170.015 255.047 170.09 255.077 170.18L256.958 176.084C257.024 176.294 257.084 176.501 257.138 176.705C257.192 176.909 257.243 177.11 257.291 177.308C257.321 177.11 257.357 176.912 257.399 176.714C257.447 176.51 257.498 176.3 257.552 176.084L259.334 170.216C259.364 170.12 259.421 170.042 259.505 169.982C259.589 169.916 259.688 169.883 259.802 169.883H261.008ZM264.26 169.883V179H262.658V169.883H264.26ZM264.602 167.021C264.602 167.177 264.569 167.324 264.503 167.462C264.443 167.594 264.359 167.714 264.251 167.822C264.149 167.924 264.026 168.005 263.882 168.065C263.744 168.125 263.597 168.155 263.441 168.155C263.285 168.155 263.138 168.125 263 168.065C262.868 168.005 262.751 167.924 262.649 167.822C262.547 167.714 262.466 167.594 262.406 167.462C262.346 167.324 262.316 167.177 262.316 167.021C262.316 166.865 262.346 166.718 262.406 166.58C262.466 166.436 262.547 166.313 262.649 166.211C262.751 166.103 262.868 166.019 263 165.959C263.138 165.899 263.285 165.869 263.441 165.869C263.597 165.869 263.744 165.899 263.882 165.959C264.026 166.019 264.149 166.103 264.251 166.211C264.359 166.313 264.443 166.436 264.503 166.58C264.569 166.718 264.602 166.865 264.602 167.021ZM269.691 179.144C268.971 179.144 268.416 178.943 268.026 178.541C267.642 178.139 267.45 177.56 267.45 176.804V171.224H266.352C266.256 171.224 266.175 171.197 266.109 171.143C266.043 171.083 266.01 170.993 266.01 170.873V170.234L267.504 170.045L267.873 167.228C267.891 167.138 267.93 167.066 267.99 167.012C268.056 166.952 268.14 166.922 268.242 166.922H269.052V170.063H271.689V171.224H269.052V176.696C269.052 177.08 269.145 177.365 269.331 177.551C269.517 177.737 269.757 177.83 270.051 177.83C270.219 177.83 270.363 177.809 270.483 177.767C270.609 177.719 270.717 177.668 270.807 177.614C270.897 177.56 270.972 177.512 271.032 177.47C271.098 177.422 271.155 177.398 271.203 177.398C271.287 177.398 271.362 177.449 271.428 177.551L271.896 178.316C271.62 178.574 271.287 178.778 270.897 178.928C270.507 179.072 270.105 179.144 269.691 179.144ZM274.954 171.098C275.344 170.684 275.776 170.354 276.25 170.108C276.724 169.862 277.27 169.739 277.888 169.739C278.386 169.739 278.824 169.823 279.202 169.991C279.586 170.153 279.904 170.387 280.156 170.693C280.414 170.993 280.609 171.356 280.741 171.782C280.873 172.208 280.939 172.679 280.939 173.195V179H279.328V173.195C279.328 172.505 279.169 171.971 278.851 171.593C278.539 171.209 278.062 171.017 277.42 171.017C276.946 171.017 276.502 171.131 276.088 171.359C275.68 171.587 275.302 171.896 274.954 172.286V179H273.343V165.743H274.954V171.098ZM31.068 201.144C30.348 201.144 29.793 200.943 29.403 200.541C29.019 200.139 28.827 199.56 28.827 198.804V193.224H27.729C27.633 193.224 27.552 193.197 27.486 193.143C27.42 193.083 27.387 192.993 27.387 192.873V192.234L28.881 192.045L29.25 189.228C29.268 189.138 29.307 189.066 29.367 189.012C29.433 188.952 29.517 188.922 29.619 188.922H30.429V192.063H33.066V193.224H30.429V198.696C30.429 199.08 30.522 199.365 30.708 199.551C30.894 199.737 31.134 199.83 31.428 199.83C31.596 199.83 31.74 199.809 31.86 199.767C31.986 199.719 32.094 199.668 32.184 199.614C32.274 199.56 32.349 199.512 32.409 199.47C32.475 199.422 32.532 199.398 32.58 199.398C32.664 199.398 32.739 199.449 32.805 199.551L33.273 200.316C32.997 200.574 32.664 200.778 32.274 200.928C31.884 201.072 31.482 201.144 31.068 201.144ZM39.6612 196.896C38.9232 196.92 38.2932 196.98 37.7712 197.076C37.2552 197.166 36.8322 197.286 36.5022 197.436C36.1782 197.586 35.9412 197.763 35.7912 197.967C35.6472 198.171 35.5752 198.399 35.5752 198.651C35.5752 198.891 35.6142 199.098 35.6922 199.272C35.7702 199.446 35.8752 199.59 36.0072 199.704C36.1452 199.812 36.3042 199.893 36.4842 199.947C36.6702 199.995 36.8682 200.019 37.0782 200.019C37.3602 200.019 37.6182 199.992 37.8522 199.938C38.0862 199.878 38.3052 199.794 38.5092 199.686C38.7192 199.578 38.9172 199.449 39.1032 199.299C39.2952 199.149 39.4812 198.978 39.6612 198.786V196.896ZM34.4862 193.17C34.9902 192.684 35.5332 192.321 36.1152 192.081C36.6972 191.841 37.3422 191.721 38.0502 191.721C38.5602 191.721 39.0132 191.805 39.4092 191.973C39.8052 192.141 40.1382 192.375 40.4082 192.675C40.6782 192.975 40.8822 193.338 41.0202 193.764C41.1582 194.19 41.2272 194.658 41.2272 195.168V201H40.5162C40.3602 201 40.2402 200.976 40.1562 200.928C40.0722 200.874 40.0062 200.772 39.9582 200.622L39.7782 199.758C39.5382 199.98 39.3042 200.178 39.0762 200.352C38.8482 200.52 38.6082 200.664 38.3562 200.784C38.1042 200.898 37.8342 200.985 37.5462 201.045C37.2642 201.111 36.9492 201.144 36.6012 201.144C36.2472 201.144 35.9142 201.096 35.6022 201C35.2902 200.898 35.0172 200.748 34.7832 200.55C34.5552 200.352 34.3722 200.103 34.2342 199.803C34.1022 199.497 34.0362 199.137 34.0362 198.723C34.0362 198.363 34.1352 198.018 34.3332 197.688C34.5312 197.352 34.8522 197.055 35.2962 196.797C35.7402 196.539 36.3192 196.329 37.0332 196.167C37.7472 195.999 38.6232 195.903 39.6612 195.879V195.168C39.6612 194.46 39.5082 193.926 39.2022 193.566C38.8962 193.2 38.4492 193.017 37.8612 193.017C37.4652 193.017 37.1322 193.068 36.8622 193.17C36.5982 193.266 36.3672 193.377 36.1692 193.503C35.9772 193.623 35.8092 193.734 35.6652 193.836C35.5272 193.932 35.3892 193.98 35.2512 193.98C35.1432 193.98 35.0502 193.953 34.9722 193.899C34.8942 193.839 34.8282 193.767 34.7742 193.683L34.4862 193.17ZM45.1884 193.71C45.4764 193.086 45.8304 192.6 46.2504 192.252C46.6704 191.898 47.1834 191.721 47.7894 191.721C47.9814 191.721 48.1644 191.742 48.3384 191.784C48.5184 191.826 48.6774 191.892 48.8154 191.982L48.6984 193.179C48.6624 193.329 48.5724 193.404 48.4284 193.404C48.3444 193.404 48.2214 193.386 48.0594 193.35C47.8974 193.314 47.7144 193.296 47.5104 193.296C47.2224 193.296 46.9644 193.338 46.7364 193.422C46.5144 193.506 46.3134 193.632 46.1334 193.8C45.9594 193.962 45.8004 194.166 45.6564 194.412C45.5184 194.652 45.3924 194.928 45.2784 195.24V201H43.6674V191.883H44.5854C44.7594 191.883 44.8794 191.916 44.9454 191.982C45.0114 192.048 45.0564 192.162 45.0804 192.324L45.1884 193.71ZM53.1901 196.545C53.5141 196.545 53.7991 196.5 54.0451 196.41C54.2911 196.32 54.4981 196.194 54.6661 196.032C54.8341 195.87 54.9601 195.678 55.0441 195.456C55.1281 195.228 55.1701 194.979 55.1701 194.709C55.1701 194.151 54.9991 193.707 54.6571 193.377C54.3211 193.047 53.8321 192.882 53.1901 192.882C52.5421 192.882 52.0471 193.047 51.7051 193.377C51.3691 193.707 51.2011 194.151 51.2011 194.709C51.2011 194.979 51.2431 195.228 51.3271 195.456C51.4171 195.678 51.5461 195.87 51.7141 196.032C51.8821 196.194 52.0891 196.32 52.3351 196.41C52.5811 196.5 52.8661 196.545 53.1901 196.545ZM56.0791 201.495C56.0791 201.273 56.0161 201.093 55.8901 200.955C55.7641 200.817 55.5931 200.709 55.3771 200.631C55.1671 200.553 54.9211 200.499 54.6391 200.469C54.3571 200.433 54.0571 200.406 53.7391 200.388C53.4271 200.37 53.1091 200.352 52.7851 200.334C52.4611 200.316 52.1491 200.286 51.8491 200.244C51.5131 200.4 51.2371 200.598 51.0211 200.838C50.8111 201.072 50.7061 201.348 50.7061 201.666C50.7061 201.87 50.7571 202.059 50.8591 202.233C50.9671 202.413 51.1291 202.566 51.3451 202.692C51.5611 202.824 51.8311 202.926 52.1551 202.998C52.4851 203.076 52.8721 203.115 53.3161 203.115C53.7481 203.115 54.1351 203.076 54.4771 202.998C54.8191 202.92 55.1071 202.809 55.3411 202.665C55.5811 202.521 55.7641 202.35 55.8901 202.152C56.0161 201.954 56.0791 201.735 56.0791 201.495ZM57.7081 192.243V192.837C57.7081 193.035 57.5821 193.161 57.3301 193.215L56.2951 193.35C56.4991 193.746 56.6011 194.184 56.6011 194.664C56.6011 195.108 56.5141 195.513 56.3401 195.879C56.1721 196.239 55.9381 196.548 55.6381 196.806C55.3381 197.064 54.9781 197.262 54.5581 197.4C54.1381 197.538 53.6821 197.607 53.1901 197.607C52.7641 197.607 52.3621 197.556 51.9841 197.454C51.7921 197.574 51.6451 197.703 51.5431 197.841C51.4411 197.973 51.3901 198.108 51.3901 198.246C51.3901 198.462 51.4771 198.627 51.6511 198.741C51.8311 198.849 52.0651 198.927 52.3531 198.975C52.6411 199.023 52.9681 199.053 53.3341 199.065C53.7061 199.077 54.0841 199.098 54.4681 199.128C54.8581 199.152 55.2361 199.197 55.6021 199.263C55.9741 199.329 56.3041 199.437 56.5921 199.587C56.8801 199.737 57.1111 199.944 57.2851 200.208C57.4651 200.472 57.5551 200.814 57.5551 201.234C57.5551 201.624 57.4561 202.002 57.2581 202.368C57.0661 202.734 56.7871 203.058 56.4211 203.34C56.0551 203.628 55.6051 203.856 55.0711 204.024C54.5431 204.198 53.9461 204.285 53.2801 204.285C52.6141 204.285 52.0321 204.219 51.5341 204.087C51.0361 203.955 50.6221 203.778 50.2921 203.556C49.9621 203.334 49.7131 203.076 49.5451 202.782C49.3831 202.494 49.3021 202.191 49.3021 201.873C49.3021 201.423 49.4431 201.042 49.7251 200.73C50.0071 200.418 50.3941 200.169 50.8861 199.983C50.6161 199.863 50.4001 199.704 50.2381 199.506C50.0821 199.302 50.0041 199.029 50.0041 198.687C50.0041 198.555 50.0281 198.42 50.0761 198.282C50.1241 198.138 50.1961 197.997 50.2921 197.859C50.3941 197.715 50.5171 197.58 50.6611 197.454C50.8051 197.328 50.9731 197.217 51.1651 197.121C50.7151 196.869 50.3641 196.536 50.1121 196.122C49.8601 195.702 49.7341 195.216 49.7341 194.664C49.7341 194.22 49.8181 193.818 49.9861 193.458C50.1601 193.092 50.4001 192.783 50.7061 192.531C51.0121 192.273 51.3751 192.075 51.7951 191.937C52.2211 191.799 52.6861 191.73 53.1901 191.73C53.5861 191.73 53.9551 191.775 54.2971 191.865C54.6391 191.949 54.9511 192.075 55.2331 192.243H57.7081ZM65.3261 195.447C65.3261 195.075 65.2721 194.736 65.1641 194.43C65.0621 194.118 64.9091 193.851 64.7051 193.629C64.5071 193.401 64.2641 193.227 63.9761 193.107C63.6881 192.981 63.3611 192.918 62.9951 192.918C62.2271 192.918 61.6181 193.143 61.1681 193.593C60.7241 194.037 60.4481 194.655 60.3401 195.447H65.3261ZM66.6221 199.722C66.4241 199.962 66.1871 200.172 65.9111 200.352C65.6351 200.526 65.3381 200.67 65.0201 200.784C64.7081 200.898 64.3841 200.982 64.0481 201.036C63.7121 201.096 63.3791 201.126 63.0491 201.126C62.4191 201.126 61.8371 201.021 61.3031 200.811C60.7751 200.595 60.3161 200.283 59.9261 199.875C59.5421 199.461 59.2421 198.951 59.0261 198.345C58.8101 197.739 58.7021 197.043 58.7021 196.257C58.7021 195.621 58.7981 195.027 58.9901 194.475C59.1881 193.923 59.4701 193.446 59.8361 193.044C60.2021 192.636 60.6491 192.318 61.1771 192.09C61.7051 191.856 62.2991 191.739 62.9591 191.739C63.5051 191.739 64.0091 191.832 64.4711 192.018C64.9391 192.198 65.3411 192.462 65.6771 192.81C66.0191 193.152 66.2861 193.578 66.4781 194.088C66.6701 194.592 66.7661 195.168 66.7661 195.816C66.7661 196.068 66.7391 196.236 66.6851 196.32C66.6311 196.404 66.5291 196.446 66.3791 196.446H60.2861C60.3041 197.022 60.3821 197.523 60.5201 197.949C60.6641 198.375 60.8621 198.732 61.1141 199.02C61.3661 199.302 61.6661 199.515 62.0141 199.659C62.3621 199.797 62.7521 199.866 63.1841 199.866C63.5861 199.866 63.9311 199.821 64.2191 199.731C64.5131 199.635 64.7651 199.533 64.9751 199.425C65.1851 199.317 65.3591 199.218 65.4971 199.128C65.6411 199.032 65.7641 198.984 65.8661 198.984C65.9981 198.984 66.1001 199.035 66.1721 199.137L66.6221 199.722ZM71.4625 201.144C70.7425 201.144 70.1875 200.943 69.7975 200.541C69.4135 200.139 69.2215 199.56 69.2215 198.804V193.224H68.1235C68.0275 193.224 67.9465 193.197 67.8805 193.143C67.8145 193.083 67.7815 192.993 67.7815 192.873V192.234L69.2755 192.045L69.6445 189.228C69.6625 189.138 69.7015 189.066 69.7615 189.012C69.8275 188.952 69.9115 188.922 70.0135 188.922H70.8235V192.063H73.4605V193.224H70.8235V198.696C70.8235 199.08 70.9165 199.365 71.1025 199.551C71.2885 199.737 71.5285 199.83 71.8225 199.83C71.9905 199.83 72.1345 199.809 72.2545 199.767C72.3805 199.719 72.4885 199.668 72.5785 199.614C72.6685 199.56 72.7435 199.512 72.8035 199.47C72.8695 199.422 72.9265 199.398 72.9745 199.398C73.0585 199.398 73.1335 199.449 73.1995 199.551L73.6675 200.316C73.3915 200.574 73.0585 200.778 72.6685 200.928C72.2785 201.072 71.8765 201.144 71.4625 201.144ZM81.164 195.447C81.164 195.075 81.11 194.736 81.002 194.43C80.9 194.118 80.747 193.851 80.543 193.629C80.345 193.401 80.102 193.227 79.814 193.107C79.526 192.981 79.199 192.918 78.833 192.918C78.065 192.918 77.456 193.143 77.006 193.593C76.562 194.037 76.286 194.655 76.178 195.447H81.164ZM82.46 199.722C82.262 199.962 82.025 200.172 81.749 200.352C81.473 200.526 81.176 200.67 80.858 200.784C80.546 200.898 80.222 200.982 79.886 201.036C79.55 201.096 79.217 201.126 78.887 201.126C78.257 201.126 77.675 201.021 77.141 200.811C76.613 200.595 76.154 200.283 75.764 199.875C75.38 199.461 75.08 198.951 74.864 198.345C74.648 197.739 74.54 197.043 74.54 196.257C74.54 195.621 74.636 195.027 74.828 194.475C75.026 193.923 75.308 193.446 75.674 193.044C76.04 192.636 76.487 192.318 77.015 192.09C77.543 191.856 78.137 191.739 78.797 191.739C79.343 191.739 79.847 191.832 80.309 192.018C80.777 192.198 81.179 192.462 81.515 192.81C81.857 193.152 82.124 193.578 82.316 194.088C82.508 194.592 82.604 195.168 82.604 195.816C82.604 196.068 82.577 196.236 82.523 196.32C82.469 196.404 82.367 196.446 82.217 196.446H76.124C76.142 197.022 76.22 197.523 76.358 197.949C76.502 198.375 76.7 198.732 76.952 199.02C77.204 199.302 77.504 199.515 77.852 199.659C78.2 199.797 78.59 199.866 79.022 199.866C79.424 199.866 79.769 199.821 80.057 199.731C80.351 199.635 80.603 199.533 80.813 199.425C81.023 199.317 81.197 199.218 81.335 199.128C81.479 199.032 81.602 198.984 81.704 198.984C81.836 198.984 81.938 199.035 82.01 199.137L82.46 199.722ZM90.5117 194.052C90.2117 193.65 89.8877 193.371 89.5397 193.215C89.1917 193.053 88.8017 192.972 88.3697 192.972C87.5237 192.972 86.8727 193.275 86.4167 193.881C85.9607 194.487 85.7327 195.351 85.7327 196.473C85.7327 197.067 85.7837 197.577 85.8857 198.003C85.9877 198.423 86.1377 198.771 86.3357 199.047C86.5337 199.317 86.7767 199.515 87.0647 199.641C87.3527 199.767 87.6797 199.83 88.0457 199.83C88.5737 199.83 89.0327 199.71 89.4227 199.47C89.8187 199.23 90.1817 198.891 90.5117 198.453V194.052ZM92.1137 187.743V201H91.1597C90.9317 201 90.7877 200.889 90.7277 200.667L90.5837 199.56C90.1937 200.028 89.7497 200.406 89.2517 200.694C88.7537 200.982 88.1777 201.126 87.5237 201.126C87.0017 201.126 86.5277 201.027 86.1017 200.829C85.6757 200.625 85.3127 200.328 85.0127 199.938C84.7127 199.548 84.4817 199.062 84.3197 198.48C84.1577 197.898 84.0767 197.229 84.0767 196.473C84.0767 195.801 84.1667 195.177 84.3467 194.601C84.5267 194.019 84.7847 193.515 85.1207 193.089C85.4567 192.663 85.8677 192.33 86.3537 192.09C86.8457 191.844 87.3977 191.721 88.0097 191.721C88.5677 191.721 89.0447 191.817 89.4407 192.009C89.8427 192.195 90.1997 192.456 90.5117 192.792V187.743H92.1137ZM110.076 188.103V201H109.203C109.065 201 108.948 200.976 108.852 200.928C108.762 200.88 108.672 200.799 108.582 200.685L101.121 190.965C101.133 191.115 101.142 191.262 101.148 191.406C101.154 191.55 101.157 191.685 101.157 191.811V201H99.6275V188.103H100.527C100.605 188.103 100.671 188.109 100.725 188.121C100.779 188.127 100.827 188.142 100.869 188.166C100.911 188.184 100.953 188.214 100.995 188.256C101.037 188.292 101.082 188.34 101.13 188.4L108.591 198.111C108.579 197.955 108.567 197.805 108.555 197.661C108.549 197.511 108.546 197.37 108.546 197.238V188.103H110.076ZM121.33 199.578L121.321 201H113.374V188.103H121.321V189.525H115.12V193.809H120.142V195.177H115.12V199.578H121.33ZM131.718 199.578L131.709 201H123.762V188.103H131.709V189.525H125.508V193.809H130.53V195.177H125.508V199.578H131.718ZM142.872 189.57H138.696V201H136.959V189.57H132.774V188.103H142.872V189.57ZM152.653 194.79C153.151 194.79 153.589 194.724 153.967 194.592C154.351 194.46 154.672 194.277 154.93 194.043C155.194 193.803 155.392 193.518 155.524 193.188C155.656 192.858 155.722 192.495 155.722 192.099C155.722 191.277 155.467 190.635 154.957 190.173C154.453 189.711 153.685 189.48 152.653 189.48H150.583V194.79H152.653ZM152.653 188.103C153.469 188.103 154.177 188.199 154.777 188.391C155.383 188.577 155.884 188.844 156.28 189.192C156.676 189.54 156.97 189.96 157.162 190.452C157.36 190.944 157.459 191.493 157.459 192.099C157.459 192.699 157.354 193.248 157.144 193.746C156.934 194.244 156.625 194.673 156.217 195.033C155.815 195.393 155.314 195.675 154.714 195.879C154.12 196.077 153.433 196.176 152.653 196.176H150.583V201H148.846V188.103H152.653ZM170.133 194.799V199.749C169.485 200.217 168.792 200.568 168.054 200.802C167.322 201.03 166.518 201.144 165.642 201.144C164.604 201.144 163.668 200.985 162.834 200.667C162 200.343 161.286 199.893 160.692 199.317C160.104 198.735 159.651 198.039 159.333 197.229C159.015 196.419 158.856 195.528 158.856 194.556C158.856 193.572 159.009 192.675 159.315 191.865C159.627 191.055 160.068 190.362 160.638 189.786C161.208 189.204 161.901 188.754 162.717 188.436C163.533 188.118 164.445 187.959 165.453 187.959C165.963 187.959 166.437 187.998 166.875 188.076C167.313 188.148 167.718 188.256 168.09 188.4C168.462 188.538 168.807 188.709 169.125 188.913C169.443 189.111 169.74 189.336 170.016 189.588L169.521 190.38C169.443 190.5 169.341 190.578 169.215 190.614C169.095 190.644 168.96 190.614 168.81 190.524C168.666 190.44 168.501 190.338 168.315 190.218C168.129 190.098 167.901 189.984 167.631 189.876C167.367 189.762 167.052 189.666 166.686 189.588C166.326 189.51 165.897 189.471 165.399 189.471C164.673 189.471 164.016 189.591 163.428 189.831C162.84 190.065 162.339 190.404 161.925 190.848C161.511 191.286 161.193 191.82 160.971 192.45C160.749 193.074 160.638 193.776 160.638 194.556C160.638 195.366 160.752 196.092 160.98 196.734C161.214 197.37 161.544 197.913 161.97 198.363C162.402 198.807 162.924 199.146 163.536 199.38C164.148 199.614 164.835 199.731 165.597 199.731C166.197 199.731 166.728 199.665 167.19 199.533C167.658 199.395 168.114 199.206 168.558 198.966V196.131H166.551C166.437 196.131 166.344 196.098 166.272 196.032C166.206 195.966 166.173 195.885 166.173 195.789V194.799H170.133ZM178.644 198.804C178.938 199.2 179.259 199.479 179.607 199.641C179.955 199.803 180.345 199.884 180.777 199.884C181.629 199.884 182.283 199.581 182.739 198.975C183.195 198.369 183.423 197.505 183.423 196.383C183.423 195.789 183.369 195.279 183.261 194.853C183.159 194.427 183.009 194.079 182.811 193.809C182.613 193.533 182.37 193.332 182.082 193.206C181.794 193.08 181.467 193.017 181.101 193.017C180.579 193.017 180.12 193.137 179.724 193.377C179.334 193.617 178.974 193.956 178.644 194.394V198.804ZM178.563 193.296C178.947 192.822 179.391 192.441 179.895 192.153C180.399 191.865 180.975 191.721 181.623 191.721C182.151 191.721 182.628 191.823 183.054 192.027C183.48 192.225 183.843 192.522 184.143 192.918C184.443 193.308 184.674 193.794 184.836 194.376C184.998 194.958 185.079 195.627 185.079 196.383C185.079 197.055 184.989 197.682 184.809 198.264C184.629 198.84 184.368 199.341 184.026 199.767C183.69 200.187 183.276 200.52 182.784 200.766C182.298 201.006 181.749 201.126 181.137 201.126C180.579 201.126 180.099 201.033 179.697 200.847C179.301 200.655 178.95 200.391 178.644 200.055V204.087H177.033V191.883H177.996C178.224 191.883 178.365 191.994 178.419 192.216L178.563 193.296ZM188.644 193.71C188.932 193.086 189.286 192.6 189.706 192.252C190.126 191.898 190.639 191.721 191.245 191.721C191.437 191.721 191.62 191.742 191.794 191.784C191.974 191.826 192.133 191.892 192.271 191.982L192.154 193.179C192.118 193.329 192.028 193.404 191.884 193.404C191.8 193.404 191.677 193.386 191.515 193.35C191.353 193.314 191.17 193.296 190.966 193.296C190.678 193.296 190.42 193.338 190.192 193.422C189.97 193.506 189.769 193.632 189.589 193.8C189.415 193.962 189.256 194.166 189.112 194.412C188.974 194.652 188.848 194.928 188.734 195.24V201H187.123V191.883H188.041C188.215 191.883 188.335 191.916 188.401 191.982C188.467 192.048 188.512 192.162 188.536 192.324L188.644 193.71ZM199.412 195.447C199.412 195.075 199.358 194.736 199.25 194.43C199.148 194.118 198.995 193.851 198.791 193.629C198.593 193.401 198.35 193.227 198.062 193.107C197.774 192.981 197.447 192.918 197.081 192.918C196.313 192.918 195.704 193.143 195.254 193.593C194.81 194.037 194.534 194.655 194.426 195.447H199.412ZM200.708 199.722C200.51 199.962 200.273 200.172 199.997 200.352C199.721 200.526 199.424 200.67 199.106 200.784C198.794 200.898 198.47 200.982 198.134 201.036C197.798 201.096 197.465 201.126 197.135 201.126C196.505 201.126 195.923 201.021 195.389 200.811C194.861 200.595 194.402 200.283 194.012 199.875C193.628 199.461 193.328 198.951 193.112 198.345C192.896 197.739 192.788 197.043 192.788 196.257C192.788 195.621 192.884 195.027 193.076 194.475C193.274 193.923 193.556 193.446 193.922 193.044C194.288 192.636 194.735 192.318 195.263 192.09C195.791 191.856 196.385 191.739 197.045 191.739C197.591 191.739 198.095 191.832 198.557 192.018C199.025 192.198 199.427 192.462 199.763 192.81C200.105 193.152 200.372 193.578 200.564 194.088C200.756 194.592 200.852 195.168 200.852 195.816C200.852 196.068 200.825 196.236 200.771 196.32C200.717 196.404 200.615 196.446 200.465 196.446H194.372C194.39 197.022 194.468 197.523 194.606 197.949C194.75 198.375 194.948 198.732 195.2 199.02C195.452 199.302 195.752 199.515 196.1 199.659C196.448 199.797 196.838 199.866 197.27 199.866C197.672 199.866 198.017 199.821 198.305 199.731C198.599 199.635 198.851 199.533 199.061 199.425C199.271 199.317 199.445 199.218 199.583 199.128C199.727 199.032 199.85 198.984 199.952 198.984C200.084 198.984 200.186 199.035 200.258 199.137L200.708 199.722ZM204.431 198.804C204.725 199.2 205.046 199.479 205.394 199.641C205.742 199.803 206.132 199.884 206.564 199.884C207.416 199.884 208.07 199.581 208.526 198.975C208.982 198.369 209.21 197.505 209.21 196.383C209.21 195.789 209.156 195.279 209.048 194.853C208.946 194.427 208.796 194.079 208.598 193.809C208.4 193.533 208.157 193.332 207.869 193.206C207.581 193.08 207.254 193.017 206.888 193.017C206.366 193.017 205.907 193.137 205.511 193.377C205.121 193.617 204.761 193.956 204.431 194.394V198.804ZM204.35 193.296C204.734 192.822 205.178 192.441 205.682 192.153C206.186 191.865 206.762 191.721 207.41 191.721C207.938 191.721 208.415 191.823 208.841 192.027C209.267 192.225 209.63 192.522 209.93 192.918C210.23 193.308 210.461 193.794 210.623 194.376C210.785 194.958 210.866 195.627 210.866 196.383C210.866 197.055 210.776 197.682 210.596 198.264C210.416 198.84 210.155 199.341 209.813 199.767C209.477 200.187 209.063 200.52 208.571 200.766C208.085 201.006 207.536 201.126 206.924 201.126C206.366 201.126 205.886 201.033 205.484 200.847C205.088 200.655 204.737 200.391 204.431 200.055V204.087H202.82V191.883H203.783C204.011 191.883 204.152 191.994 204.206 192.216L204.35 193.296ZM222.456 196.896C221.718 196.92 221.088 196.98 220.566 197.076C220.05 197.166 219.627 197.286 219.297 197.436C218.973 197.586 218.736 197.763 218.586 197.967C218.442 198.171 218.37 198.399 218.37 198.651C218.37 198.891 218.409 199.098 218.487 199.272C218.565 199.446 218.67 199.59 218.802 199.704C218.94 199.812 219.099 199.893 219.279 199.947C219.465 199.995 219.663 200.019 219.873 200.019C220.155 200.019 220.413 199.992 220.647 199.938C220.881 199.878 221.1 199.794 221.304 199.686C221.514 199.578 221.712 199.449 221.898 199.299C222.09 199.149 222.276 198.978 222.456 198.786V196.896ZM217.281 193.17C217.785 192.684 218.328 192.321 218.91 192.081C219.492 191.841 220.137 191.721 220.845 191.721C221.355 191.721 221.808 191.805 222.204 191.973C222.6 192.141 222.933 192.375 223.203 192.675C223.473 192.975 223.677 193.338 223.815 193.764C223.953 194.19 224.022 194.658 224.022 195.168V201H223.311C223.155 201 223.035 200.976 222.951 200.928C222.867 200.874 222.801 200.772 222.753 200.622L222.573 199.758C222.333 199.98 222.099 200.178 221.871 200.352C221.643 200.52 221.403 200.664 221.151 200.784C220.899 200.898 220.629 200.985 220.341 201.045C220.059 201.111 219.744 201.144 219.396 201.144C219.042 201.144 218.709 201.096 218.397 201C218.085 200.898 217.812 200.748 217.578 200.55C217.35 200.352 217.167 200.103 217.029 199.803C216.897 199.497 216.831 199.137 216.831 198.723C216.831 198.363 216.93 198.018 217.128 197.688C217.326 197.352 217.647 197.055 218.091 196.797C218.535 196.539 219.114 196.329 219.828 196.167C220.542 195.999 221.418 195.903 222.456 195.879V195.168C222.456 194.46 222.303 193.926 221.997 193.566C221.691 193.2 221.244 193.017 220.656 193.017C220.26 193.017 219.927 193.068 219.657 193.17C219.393 193.266 219.162 193.377 218.964 193.503C218.772 193.623 218.604 193.734 218.46 193.836C218.322 193.932 218.184 193.98 218.046 193.98C217.938 193.98 217.845 193.953 217.767 193.899C217.689 193.839 217.623 193.767 217.569 193.683L217.281 193.17ZM227.974 193.206C228.172 192.984 228.382 192.783 228.604 192.603C228.826 192.423 229.06 192.27 229.306 192.144C229.558 192.012 229.822 191.913 230.098 191.847C230.38 191.775 230.683 191.739 231.007 191.739C231.505 191.739 231.943 191.823 232.321 191.991C232.705 192.153 233.023 192.387 233.275 192.693C233.533 192.993 233.728 193.356 233.86 193.782C233.992 194.208 234.058 194.679 234.058 195.195V201H232.447V195.195C232.447 194.505 232.288 193.971 231.97 193.593C231.658 193.209 231.181 193.017 230.539 193.017C230.065 193.017 229.621 193.131 229.207 193.359C228.799 193.587 228.421 193.896 228.073 194.286V201H226.462V191.883H227.425C227.653 191.883 227.794 191.994 227.848 192.216L227.974 193.206ZM242.439 194.052C242.139 193.65 241.815 193.371 241.467 193.215C241.119 193.053 240.729 192.972 240.297 192.972C239.451 192.972 238.8 193.275 238.344 193.881C237.888 194.487 237.66 195.351 237.66 196.473C237.66 197.067 237.711 197.577 237.813 198.003C237.915 198.423 238.065 198.771 238.263 199.047C238.461 199.317 238.704 199.515 238.992 199.641C239.28 199.767 239.607 199.83 239.973 199.83C240.501 199.83 240.96 199.71 241.35 199.47C241.746 199.23 242.109 198.891 242.439 198.453V194.052ZM244.041 187.743V201H243.087C242.859 201 242.715 200.889 242.655 200.667L242.511 199.56C242.121 200.028 241.677 200.406 241.179 200.694C240.681 200.982 240.105 201.126 239.451 201.126C238.929 201.126 238.455 201.027 238.029 200.829C237.603 200.625 237.24 200.328 236.94 199.938C236.64 199.548 236.409 199.062 236.247 198.48C236.085 197.898 236.004 197.229 236.004 196.473C236.004 195.801 236.094 195.177 236.274 194.601C236.454 194.019 236.712 193.515 237.048 193.089C237.384 192.663 237.795 192.33 238.281 192.09C238.773 191.844 239.325 191.721 239.937 191.721C240.495 191.721 240.972 191.817 241.368 192.009C241.77 192.195 242.127 192.456 242.439 192.792V187.743H244.041ZM34.371 217.447C34.371 217.075 34.317 216.736 34.209 216.43C34.107 216.118 33.954 215.851 33.75 215.629C33.552 215.401 33.309 215.227 33.021 215.107C32.733 214.981 32.406 214.918 32.04 214.918C31.272 214.918 30.663 215.143 30.213 215.593C29.769 216.037 29.493 216.655 29.385 217.447H34.371ZM35.667 221.722C35.469 221.962 35.232 222.172 34.956 222.352C34.68 222.526 34.383 222.67 34.065 222.784C33.753 222.898 33.429 222.982 33.093 223.036C32.757 223.096 32.424 223.126 32.094 223.126C31.464 223.126 30.882 223.021 30.348 222.811C29.82 222.595 29.361 222.283 28.971 221.875C28.587 221.461 28.287 220.951 28.071 220.345C27.855 219.739 27.747 219.043 27.747 218.257C27.747 217.621 27.843 217.027 28.035 216.475C28.233 215.923 28.515 215.446 28.881 215.044C29.247 214.636 29.694 214.318 30.222 214.09C30.75 213.856 31.344 213.739 32.004 213.739C32.55 213.739 33.054 213.832 33.516 214.018C33.984 214.198 34.386 214.462 34.722 214.81C35.064 215.152 35.331 215.578 35.523 216.088C35.715 216.592 35.811 217.168 35.811 217.816C35.811 218.068 35.784 218.236 35.73 218.32C35.676 218.404 35.574 218.446 35.424 218.446H29.331C29.349 219.022 29.427 219.523 29.565 219.949C29.709 220.375 29.907 220.732 30.159 221.02C30.411 221.302 30.711 221.515 31.059 221.659C31.407 221.797 31.797 221.866 32.229 221.866C32.631 221.866 32.976 221.821 33.264 221.731C33.558 221.635 33.81 221.533 34.02 221.425C34.23 221.317 34.404 221.218 34.542 221.128C34.686 221.032 34.809 220.984 34.911 220.984C35.043 220.984 35.145 221.035 35.217 221.137L35.667 221.722ZM45.1437 223H43.6047C43.4727 223 43.3677 222.967 43.2897 222.901C43.2177 222.829 43.1577 222.751 43.1097 222.667L40.8147 219.094C40.7907 219.178 40.7637 219.262 40.7337 219.346C40.7097 219.424 40.6737 219.496 40.6257 219.562L38.5017 222.667C38.4417 222.751 38.3757 222.829 38.3037 222.901C38.2377 222.967 38.1447 223 38.0247 223H36.5937L39.7887 218.32L36.7197 213.883H38.2587C38.3907 213.883 38.4867 213.904 38.5467 213.946C38.6067 213.988 38.6607 214.048 38.7087 214.126L40.9497 217.546C40.9977 217.372 41.0727 217.204 41.1747 217.042L43.1367 214.162C43.1907 214.078 43.2477 214.012 43.3077 213.964C43.3737 213.91 43.4517 213.883 43.5417 213.883H45.0177L41.9487 218.239L45.1437 223ZM48.2316 220.804C48.5256 221.2 48.8466 221.479 49.1946 221.641C49.5426 221.803 49.9326 221.884 50.3646 221.884C51.2166 221.884 51.8706 221.581 52.3266 220.975C52.7826 220.369 53.0106 219.505 53.0106 218.383C53.0106 217.789 52.9566 217.279 52.8486 216.853C52.7466 216.427 52.5966 216.079 52.3986 215.809C52.2006 215.533 51.9576 215.332 51.6696 215.206C51.3816 215.08 51.0546 215.017 50.6886 215.017C50.1666 215.017 49.7076 215.137 49.3116 215.377C48.9216 215.617 48.5616 215.956 48.2316 216.394V220.804ZM48.1506 215.296C48.5346 214.822 48.9786 214.441 49.4826 214.153C49.9866 213.865 50.5626 213.721 51.2106 213.721C51.7386 213.721 52.2156 213.823 52.6416 214.027C53.0676 214.225 53.4306 214.522 53.7306 214.918C54.0306 215.308 54.2616 215.794 54.4236 216.376C54.5856 216.958 54.6666 217.627 54.6666 218.383C54.6666 219.055 54.5766 219.682 54.3966 220.264C54.2166 220.84 53.9556 221.341 53.6136 221.767C53.2776 222.187 52.8636 222.52 52.3716 222.766C51.8856 223.006 51.3366 223.126 50.7246 223.126C50.1666 223.126 49.6866 223.033 49.2846 222.847C48.8886 222.655 48.5376 222.391 48.2316 222.055V226.087H46.6206V213.883H47.5836C47.8116 213.883 47.9526 213.994 48.0066 214.216L48.1506 215.296ZM62.8124 217.447C62.8124 217.075 62.7584 216.736 62.6504 216.43C62.5484 216.118 62.3954 215.851 62.1914 215.629C61.9934 215.401 61.7504 215.227 61.4624 215.107C61.1744 214.981 60.8474 214.918 60.4814 214.918C59.7134 214.918 59.1044 215.143 58.6544 215.593C58.2104 216.037 57.9344 216.655 57.8264 217.447H62.8124ZM64.1084 221.722C63.9104 221.962 63.6734 222.172 63.3974 222.352C63.1214 222.526 62.8244 222.67 62.5064 222.784C62.1944 222.898 61.8704 222.982 61.5344 223.036C61.1984 223.096 60.8654 223.126 60.5354 223.126C59.9054 223.126 59.3234 223.021 58.7894 222.811C58.2614 222.595 57.8024 222.283 57.4124 221.875C57.0284 221.461 56.7284 220.951 56.5124 220.345C56.2964 219.739 56.1884 219.043 56.1884 218.257C56.1884 217.621 56.2844 217.027 56.4764 216.475C56.6744 215.923 56.9564 215.446 57.3224 215.044C57.6884 214.636 58.1354 214.318 58.6634 214.09C59.1914 213.856 59.7854 213.739 60.4454 213.739C60.9914 213.739 61.4954 213.832 61.9574 214.018C62.4254 214.198 62.8274 214.462 63.1634 214.81C63.5054 215.152 63.7724 215.578 63.9644 216.088C64.1564 216.592 64.2524 217.168 64.2524 217.816C64.2524 218.068 64.2254 218.236 64.1714 218.32C64.1174 218.404 64.0154 218.446 63.8654 218.446H57.7724C57.7904 219.022 57.8684 219.523 58.0064 219.949C58.1504 220.375 58.3484 220.732 58.6004 221.02C58.8524 221.302 59.1524 221.515 59.5004 221.659C59.8484 221.797 60.2384 221.866 60.6704 221.866C61.0724 221.866 61.4174 221.821 61.7054 221.731C61.9994 221.635 62.2514 221.533 62.4614 221.425C62.6714 221.317 62.8454 221.218 62.9834 221.128C63.1274 221.032 63.2504 220.984 63.3524 220.984C63.4844 220.984 63.5864 221.035 63.6584 221.137L64.1084 221.722ZM67.7412 215.71C68.0292 215.086 68.3832 214.6 68.8032 214.252C69.2232 213.898 69.7362 213.721 70.3422 213.721C70.5342 213.721 70.7172 213.742 70.8912 213.784C71.0712 213.826 71.2302 213.892 71.3682 213.982L71.2512 215.179C71.2152 215.329 71.1252 215.404 70.9812 215.404C70.8972 215.404 70.7742 215.386 70.6122 215.35C70.4502 215.314 70.2672 215.296 70.0632 215.296C69.7752 215.296 69.5172 215.338 69.2892 215.422C69.0672 215.506 68.8662 215.632 68.6862 215.8C68.5122 215.962 68.3532 216.166 68.2092 216.412C68.0712 216.652 67.9452 216.928 67.8312 217.24V223H66.2202V213.883H67.1382C67.3122 213.883 67.4322 213.916 67.4982 213.982C67.5642 214.048 67.6092 214.162 67.6332 214.324L67.7412 215.71ZM75.5758 223.144C74.8558 223.144 74.3008 222.943 73.9108 222.541C73.5268 222.139 73.3348 221.56 73.3348 220.804V215.224H72.2368C72.1408 215.224 72.0598 215.197 71.9938 215.143C71.9278 215.083 71.8948 214.993 71.8948 214.873V214.234L73.3888 214.045L73.7578 211.228C73.7758 211.138 73.8148 211.066 73.8748 211.012C73.9408 210.952 74.0248 210.922 74.1268 210.922H74.9368V214.063H77.5738V215.224H74.9368V220.696C74.9368 221.08 75.0298 221.365 75.2158 221.551C75.4018 221.737 75.6418 221.83 75.9358 221.83C76.1038 221.83 76.2478 221.809 76.3678 221.767C76.4938 221.719 76.6018 221.668 76.6918 221.614C76.7818 221.56 76.8568 221.512 76.9168 221.47C76.9828 221.422 77.0398 221.398 77.0878 221.398C77.1718 221.398 77.2468 221.449 77.3128 221.551L77.7808 222.316C77.5048 222.574 77.1718 222.778 76.7818 222.928C76.3918 223.072 75.9898 223.144 75.5758 223.144ZM83.8335 223V213.883H84.7965C85.0245 213.883 85.1655 213.994 85.2195 214.216L85.3365 215.152C85.6725 214.738 86.0505 214.399 86.4705 214.135C86.8905 213.871 87.3765 213.739 87.9285 213.739C88.5405 213.739 89.0355 213.91 89.4135 214.252C89.7975 214.594 90.0735 215.056 90.2415 215.638C90.3735 215.308 90.5415 215.023 90.7455 214.783C90.9555 214.543 91.1895 214.345 91.4475 214.189C91.7055 214.033 91.9785 213.919 92.2665 213.847C92.5605 213.775 92.8575 213.739 93.1575 213.739C93.6375 213.739 94.0635 213.817 94.4355 213.973C94.8135 214.123 95.1315 214.345 95.3895 214.639C95.6535 214.933 95.8545 215.296 95.9925 215.728C96.1305 216.154 96.1995 216.643 96.1995 217.195V223H94.5885V217.195C94.5885 216.481 94.4325 215.941 94.1205 215.575C93.8085 215.203 93.3585 215.017 92.7705 215.017C92.5065 215.017 92.2545 215.065 92.0145 215.161C91.7805 215.251 91.5735 215.386 91.3935 215.566C91.2135 215.746 91.0695 215.974 90.9615 216.25C90.8595 216.52 90.8085 216.835 90.8085 217.195V223H89.1975V217.195C89.1975 216.463 89.0505 215.917 88.7565 215.557C88.4625 215.197 88.0335 215.017 87.4695 215.017C87.0735 215.017 86.7075 215.125 86.3715 215.341C86.0355 215.551 85.7265 215.839 85.4445 216.205V223H83.8335ZM102.477 213.739C103.143 213.739 103.743 213.85 104.277 214.072C104.811 214.294 105.267 214.609 105.645 215.017C106.023 215.425 106.311 215.92 106.509 216.502C106.713 217.078 106.815 217.723 106.815 218.437C106.815 219.157 106.713 219.805 106.509 220.381C106.311 220.957 106.023 221.449 105.645 221.857C105.267 222.265 104.811 222.58 104.277 222.802C103.743 223.018 103.143 223.126 102.477 223.126C101.805 223.126 101.199 223.018 100.659 222.802C100.125 222.58 99.6692 222.265 99.2912 221.857C98.9132 221.449 98.6222 220.957 98.4182 220.381C98.2202 219.805 98.1212 219.157 98.1212 218.437C98.1212 217.723 98.2202 217.078 98.4182 216.502C98.6222 215.92 98.9132 215.425 99.2912 215.017C99.6692 214.609 100.125 214.294 100.659 214.072C101.199 213.85 101.805 213.739 102.477 213.739ZM102.477 221.875C103.377 221.875 104.049 221.575 104.493 220.975C104.937 220.369 105.159 219.526 105.159 218.446C105.159 217.36 104.937 216.514 104.493 215.908C104.049 215.302 103.377 214.999 102.477 214.999C102.021 214.999 101.622 215.077 101.28 215.233C100.944 215.389 100.662 215.614 100.434 215.908C100.212 216.202 100.044 216.565 99.9302 216.997C99.8222 217.423 99.7682 217.906 99.7682 218.446C99.7682 219.526 99.9902 220.369 100.434 220.975C100.884 221.575 101.565 221.875 102.477 221.875ZM115.192 215.503C115.144 215.569 115.096 215.62 115.048 215.656C115 215.692 114.934 215.71 114.85 215.71C114.76 215.71 114.661 215.674 114.553 215.602C114.445 215.524 114.31 215.44 114.148 215.35C113.992 215.26 113.797 215.179 113.563 215.107C113.335 215.029 113.053 214.99 112.717 214.99C112.267 214.99 111.871 215.071 111.529 215.233C111.187 215.389 110.899 215.617 110.665 215.917C110.437 216.217 110.263 216.58 110.143 217.006C110.029 217.432 109.972 217.909 109.972 218.437C109.972 218.989 110.035 219.481 110.161 219.913C110.287 220.339 110.464 220.699 110.692 220.993C110.926 221.281 111.205 221.503 111.529 221.659C111.859 221.809 112.228 221.884 112.636 221.884C113.026 221.884 113.347 221.839 113.599 221.749C113.851 221.653 114.058 221.548 114.22 221.434C114.388 221.32 114.526 221.218 114.634 221.128C114.748 221.032 114.859 220.984 114.967 220.984C115.099 220.984 115.201 221.035 115.273 221.137L115.723 221.722C115.525 221.968 115.3 222.178 115.048 222.352C114.796 222.526 114.523 222.673 114.229 222.793C113.941 222.907 113.638 222.991 113.32 223.045C113.002 223.099 112.678 223.126 112.348 223.126C111.778 223.126 111.247 223.021 110.755 222.811C110.269 222.601 109.846 222.298 109.486 221.902C109.126 221.5 108.844 221.008 108.64 220.426C108.436 219.844 108.334 219.181 108.334 218.437C108.334 217.759 108.427 217.132 108.613 216.556C108.805 215.98 109.081 215.485 109.441 215.071C109.807 214.651 110.254 214.324 110.782 214.09C111.316 213.856 111.928 213.739 112.618 213.739C113.26 213.739 113.824 213.844 114.31 214.054C114.802 214.258 115.237 214.549 115.615 214.927L115.192 215.503ZM119.054 209.743V217.546H119.468C119.588 217.546 119.687 217.531 119.765 217.501C119.849 217.465 119.936 217.396 120.026 217.294L122.906 214.207C122.99 214.105 123.077 214.027 123.167 213.973C123.263 213.913 123.389 213.883 123.545 213.883H124.994L121.637 217.456C121.475 217.66 121.301 217.819 121.115 217.933C121.223 218.005 121.319 218.089 121.403 218.185C121.493 218.275 121.577 218.38 121.655 218.5L125.219 223H123.788C123.65 223 123.53 222.979 123.428 222.937C123.332 222.889 123.248 222.805 123.176 222.685L120.179 218.95C120.089 218.824 119.999 218.743 119.909 218.707C119.825 218.665 119.693 218.644 119.513 218.644H119.054V223H117.443V209.743H119.054ZM133.988 223.144C133.268 223.144 132.713 222.943 132.323 222.541C131.939 222.139 131.747 221.56 131.747 220.804V215.224H130.649C130.553 215.224 130.472 215.197 130.406 215.143C130.34 215.083 130.307 214.993 130.307 214.873V214.234L131.801 214.045L132.17 211.228C132.188 211.138 132.227 211.066 132.287 211.012C132.353 210.952 132.437 210.922 132.539 210.922H133.349V214.063H135.986V215.224H133.349V220.696C133.349 221.08 133.442 221.365 133.628 221.551C133.814 221.737 134.054 221.83 134.348 221.83C134.516 221.83 134.66 221.809 134.78 221.767C134.906 221.719 135.014 221.668 135.104 221.614C135.194 221.56 135.269 221.512 135.329 221.47C135.395 221.422 135.452 221.398 135.5 221.398C135.584 221.398 135.659 221.449 135.725 221.551L136.193 222.316C135.917 222.574 135.584 222.778 135.194 222.928C134.804 223.072 134.402 223.144 133.988 223.144ZM143.689 217.447C143.689 217.075 143.635 216.736 143.527 216.43C143.425 216.118 143.272 215.851 143.068 215.629C142.87 215.401 142.627 215.227 142.339 215.107C142.051 214.981 141.724 214.918 141.358 214.918C140.59 214.918 139.981 215.143 139.531 215.593C139.087 216.037 138.811 216.655 138.703 217.447H143.689ZM144.985 221.722C144.787 221.962 144.55 222.172 144.274 222.352C143.998 222.526 143.701 222.67 143.383 222.784C143.071 222.898 142.747 222.982 142.411 223.036C142.075 223.096 141.742 223.126 141.412 223.126C140.782 223.126 140.2 223.021 139.666 222.811C139.138 222.595 138.679 222.283 138.289 221.875C137.905 221.461 137.605 220.951 137.389 220.345C137.173 219.739 137.065 219.043 137.065 218.257C137.065 217.621 137.161 217.027 137.353 216.475C137.551 215.923 137.833 215.446 138.199 215.044C138.565 214.636 139.012 214.318 139.54 214.09C140.068 213.856 140.662 213.739 141.322 213.739C141.868 213.739 142.372 213.832 142.834 214.018C143.302 214.198 143.704 214.462 144.04 214.81C144.382 215.152 144.649 215.578 144.841 216.088C145.033 216.592 145.129 217.168 145.129 217.816C145.129 218.068 145.102 218.236 145.048 218.32C144.994 218.404 144.892 218.446 144.742 218.446H138.649C138.667 219.022 138.745 219.523 138.883 219.949C139.027 220.375 139.225 220.732 139.477 221.02C139.729 221.302 140.029 221.515 140.377 221.659C140.725 221.797 141.115 221.866 141.547 221.866C141.949 221.866 142.294 221.821 142.582 221.731C142.876 221.635 143.128 221.533 143.338 221.425C143.548 221.317 143.722 221.218 143.86 221.128C144.004 221.032 144.127 220.984 144.229 220.984C144.361 220.984 144.463 221.035 144.535 221.137L144.985 221.722ZM152.407 215.386C152.335 215.518 152.224 215.584 152.074 215.584C151.984 215.584 151.882 215.551 151.768 215.485C151.654 215.419 151.513 215.347 151.345 215.269C151.183 215.185 150.988 215.11 150.76 215.044C150.532 214.972 150.262 214.936 149.95 214.936C149.68 214.936 149.437 214.972 149.221 215.044C149.005 215.11 148.819 215.203 148.663 215.323C148.513 215.443 148.396 215.584 148.312 215.746C148.234 215.902 148.195 216.073 148.195 216.259C148.195 216.493 148.261 216.688 148.393 216.844C148.531 217 148.711 217.135 148.933 217.249C149.155 217.363 149.407 217.465 149.689 217.555C149.971 217.639 150.259 217.732 150.553 217.834C150.853 217.93 151.144 218.038 151.426 218.158C151.708 218.278 151.96 218.428 152.182 218.608C152.404 218.788 152.581 219.01 152.713 219.274C152.851 219.532 152.92 219.844 152.92 220.21C152.92 220.63 152.845 221.02 152.695 221.38C152.545 221.734 152.323 222.043 152.029 222.307C151.735 222.565 151.375 222.769 150.949 222.919C150.523 223.069 150.031 223.144 149.473 223.144C148.837 223.144 148.261 223.042 147.745 222.838C147.229 222.628 146.791 222.361 146.431 222.037L146.809 221.425C146.857 221.347 146.914 221.287 146.98 221.245C147.046 221.203 147.13 221.182 147.232 221.182C147.34 221.182 147.454 221.224 147.574 221.308C147.694 221.392 147.838 221.485 148.006 221.587C148.18 221.689 148.39 221.782 148.636 221.866C148.882 221.95 149.188 221.992 149.554 221.992C149.866 221.992 150.139 221.953 150.373 221.875C150.607 221.791 150.802 221.68 150.958 221.542C151.114 221.404 151.228 221.245 151.3 221.065C151.378 220.885 151.417 220.693 151.417 220.489C151.417 220.237 151.348 220.03 151.21 219.868C151.078 219.7 150.901 219.559 150.679 219.445C150.457 219.325 150.202 219.223 149.914 219.139C149.632 219.049 149.341 218.956 149.041 218.86C148.747 218.764 148.456 218.656 148.168 218.536C147.886 218.41 147.634 218.254 147.412 218.068C147.19 217.882 147.01 217.654 146.872 217.384C146.74 217.108 146.674 216.775 146.674 216.385C146.674 216.037 146.746 215.704 146.89 215.386C147.034 215.062 147.244 214.78 147.52 214.54C147.796 214.294 148.135 214.099 148.537 213.955C148.939 213.811 149.398 213.739 149.914 213.739C150.514 213.739 151.051 213.835 151.525 214.027C152.005 214.213 152.419 214.471 152.767 214.801L152.407 215.386ZM157.683 223.144C156.963 223.144 156.408 222.943 156.018 222.541C155.634 222.139 155.442 221.56 155.442 220.804V215.224H154.344C154.248 215.224 154.167 215.197 154.101 215.143C154.035 215.083 154.002 214.993 154.002 214.873V214.234L155.496 214.045L155.865 211.228C155.883 211.138 155.922 211.066 155.982 211.012C156.048 210.952 156.132 210.922 156.234 210.922H157.044V214.063H159.681V215.224H157.044V220.696C157.044 221.08 157.137 221.365 157.323 221.551C157.509 221.737 157.749 221.83 158.043 221.83C158.211 221.83 158.355 221.809 158.475 221.767C158.601 221.719 158.709 221.668 158.799 221.614C158.889 221.56 158.964 221.512 159.024 221.47C159.09 221.422 159.147 221.398 159.195 221.398C159.279 221.398 159.354 221.449 159.42 221.551L159.888 222.316C159.612 222.574 159.279 222.778 158.889 222.928C158.499 223.072 158.097 223.144 157.683 223.144ZM166.645 215.386C166.573 215.518 166.462 215.584 166.312 215.584C166.222 215.584 166.12 215.551 166.006 215.485C165.892 215.419 165.751 215.347 165.583 215.269C165.421 215.185 165.226 215.11 164.998 215.044C164.77 214.972 164.5 214.936 164.188 214.936C163.918 214.936 163.675 214.972 163.459 215.044C163.243 215.11 163.057 215.203 162.901 215.323C162.751 215.443 162.634 215.584 162.55 215.746C162.472 215.902 162.433 216.073 162.433 216.259C162.433 216.493 162.499 216.688 162.631 216.844C162.769 217 162.949 217.135 163.171 217.249C163.393 217.363 163.645 217.465 163.927 217.555C164.209 217.639 164.497 217.732 164.791 217.834C165.091 217.93 165.382 218.038 165.664 218.158C165.946 218.278 166.198 218.428 166.42 218.608C166.642 218.788 166.819 219.01 166.951 219.274C167.089 219.532 167.158 219.844 167.158 220.21C167.158 220.63 167.083 221.02 166.933 221.38C166.783 221.734 166.561 222.043 166.267 222.307C165.973 222.565 165.613 222.769 165.187 222.919C164.761 223.069 164.269 223.144 163.711 223.144C163.075 223.144 162.499 223.042 161.983 222.838C161.467 222.628 161.029 222.361 160.669 222.037L161.047 221.425C161.095 221.347 161.152 221.287 161.218 221.245C161.284 221.203 161.368 221.182 161.47 221.182C161.578 221.182 161.692 221.224 161.812 221.308C161.932 221.392 162.076 221.485 162.244 221.587C162.418 221.689 162.628 221.782 162.874 221.866C163.12 221.95 163.426 221.992 163.792 221.992C164.104 221.992 164.377 221.953 164.611 221.875C164.845 221.791 165.04 221.68 165.196 221.542C165.352 221.404 165.466 221.245 165.538 221.065C165.616 220.885 165.655 220.693 165.655 220.489C165.655 220.237 165.586 220.03 165.448 219.868C165.316 219.7 165.139 219.559 164.917 219.445C164.695 219.325 164.44 219.223 164.152 219.139C163.87 219.049 163.579 218.956 163.279 218.86C162.985 218.764 162.694 218.656 162.406 218.536C162.124 218.41 161.872 218.254 161.65 218.068C161.428 217.882 161.248 217.654 161.11 217.384C160.978 217.108 160.912 216.775 160.912 216.385C160.912 216.037 160.984 215.704 161.128 215.386C161.272 215.062 161.482 214.78 161.758 214.54C162.034 214.294 162.373 214.099 162.775 213.955C163.177 213.811 163.636 213.739 164.152 213.739C164.752 213.739 165.289 213.835 165.763 214.027C166.243 214.213 166.657 214.471 167.005 214.801L166.645 215.386ZM168.853 222.01C168.853 221.854 168.88 221.707 168.934 221.569C168.994 221.431 169.072 221.311 169.168 221.209C169.27 221.107 169.39 221.026 169.528 220.966C169.666 220.906 169.813 220.876 169.969 220.876C170.125 220.876 170.272 220.906 170.41 220.966C170.548 221.026 170.668 221.107 170.77 221.209C170.872 221.311 170.953 221.431 171.013 221.569C171.073 221.707 171.103 221.854 171.103 222.01C171.103 222.172 171.073 222.322 171.013 222.46C170.953 222.592 170.872 222.709 170.77 222.811C170.668 222.913 170.548 222.991 170.41 223.045C170.272 223.105 170.125 223.135 169.969 223.135C169.813 223.135 169.666 223.105 169.528 223.045C169.39 222.991 169.27 222.913 169.168 222.811C169.072 222.709 168.994 222.592 168.934 222.46C168.88 222.322 168.853 222.172 168.853 222.01Z" fill="black"/>
</svg>
