<svg width="48" height="48" viewBox="0 0 48 48" fill="none" xmlns="http://www.w3.org/2000/svg">
<rect width="48" height="48" rx="22" fill="#A1FFF6"/>
<path d="M32.7446 33.9C30.4529 33.9 28.1888 33.4006 25.9521 32.4018C23.7154 31.403 21.6804 29.9865 19.8471 28.1525C18.0138 26.3184 16.5977 24.2834 15.5989 22.0475C14.6001 19.8115 14.1003 17.5474 14.0996 15.255C14.0996 14.925 14.2096 14.65 14.4296 14.43C14.6496 14.21 14.9246 14.1 15.2546 14.1H19.7096C19.9663 14.1 20.1954 14.1872 20.3971 14.3618C20.5988 14.5363 20.7179 14.7424 20.7546 14.98L21.4696 18.83C21.5063 19.1233 21.4971 19.3708 21.4421 19.5725C21.3871 19.7741 21.2863 19.9483 21.1396 20.095L18.4721 22.79C18.8388 23.4683 19.274 24.1235 19.7778 24.7557C20.2816 25.3878 20.8364 25.9976 21.4421 26.585C22.0104 27.1533 22.6063 27.6806 23.2296 28.1668C23.8529 28.653 24.5129 29.0974 25.2096 29.5L27.7946 26.915C27.9596 26.75 28.1752 26.6264 28.4414 26.5443C28.7076 26.4621 28.9687 26.439 29.2246 26.475L33.0196 27.245C33.2763 27.3183 33.4871 27.4514 33.6521 27.6443C33.8171 27.8371 33.8996 28.0524 33.8996 28.29V32.745C33.8996 33.075 33.7896 33.35 33.5696 33.57C33.3496 33.79 33.0746 33.9 32.7446 33.9Z" fill="black"/>
</svg>
