<svg width="60" height="60" viewBox="0 0 60 60" fill="none" xmlns="http://www.w3.org/2000/svg">
<rect x="0.5" y="0.5" width="59" height="59" rx="29.5" fill="#B0DEDA"/>
<rect x="0.5" y="0.5" width="59" height="59" rx="29.5" stroke="#47BFFF"/>
<path d="M26.025 36.25L31.25 39.1V42.5H22.5C21.1125 42.5 20 41.3875 20 40V20C20 19.337 20.2634 18.7011 20.7322 18.2322C21.2011 17.7634 21.837 17.5 22.5 17.5H23.75V26.25L26.875 24.375L30 26.25V17.5H37.5C38.163 17.5 38.7989 17.7634 39.2678 18.2322C39.7366 18.7011 40 19.337 40 20V30.675L38.125 29.65L26.025 36.25ZM45 36.25L38.125 32.5L31.25 36.25L38.125 40L45 36.25ZM33.75 38.8625V41.3625L38.125 43.75L42.5 41.3625V38.8625L38.125 41.25L33.75 38.8625Z" fill="#003F39"/>
</svg>
