<svg width="18" height="18" viewBox="0 0 18 18" fill="none" xmlns="http://www.w3.org/2000/svg">
<g clip-path="url(#clip0_0_461)">
<path d="M18 5.4V0.600001C18 0.440871 17.9368 0.288259 17.8243 0.175737C17.7117 0.0632151 17.5591 9.60781e-07 17.4 9.60781e-07L12.6 9.60781e-07C12.4812 -0.000211637 12.365 0.0348624 12.2661 0.100777C12.1672 0.166691 12.0902 0.260477 12.0447 0.370245C11.9992 0.480013 11.9873 0.60082 12.0105 0.71735C12.0338 0.83388 12.0911 0.940885 12.1752 1.0248L14.1516 3L0.1752 16.9752L1.0248 17.8248L15 3.8484L16.9752 5.8248C17.0591 5.90893 17.1661 5.96625 17.2827 5.98949C17.3992 6.01273 17.52 6.00084 17.6298 5.95534C17.7395 5.90984 17.8333 5.83277 17.8992 5.7339C17.9651 5.63504 18.0002 5.51883 18 5.4Z" fill="white"/>
</g>
<defs>
<clipPath id="clip0_0_461">
<rect width="18" height="18" fill="white" transform="matrix(0 1 -1 0 18 0)"/>
</clipPath>
</defs>
</svg>
