<svg width="17" height="17" viewBox="0 0 17 17" fill="none" xmlns="http://www.w3.org/2000/svg">
<g clip-path="url(#clip0_0_1171)">
<path fill-rule="evenodd" clip-rule="evenodd" d="M0 8.48014C0 6.23107 0.893441 4.07411 2.48378 2.48378C4.07411 0.893441 6.23107 0 8.48014 0C10.7292 0 12.8862 0.893441 14.4765 2.48378C16.0668 4.07411 16.9603 6.23107 16.9603 8.48014C16.9603 10.7292 16.0668 12.8862 14.4765 14.4765C12.8862 16.0668 10.7292 16.9603 8.48014 16.9603C6.23107 16.9603 4.07411 16.0668 2.48378 14.4765C0.893441 12.8862 0 10.7292 0 8.48014ZM7.99621 12.1096L12.8785 6.0062L11.9966 5.30066L7.83339 10.5029L4.88456 8.04596L4.16092 8.91433L7.99621 12.1096Z" fill="white"/>
</g>
<defs>
<clipPath id="clip0_0_1171">
<rect width="16.9603" height="16.9603" fill="white"/>
</clipPath>
</defs>
</svg>
