<svg width="348" height="267" viewBox="0 0 348 267" fill="none" xmlns="http://www.w3.org/2000/svg">
<rect width="348" height="267" rx="12" fill="#FFFD93"/>
<path d="M59.5149 42.4302V66H57.2655C56.9178 66 56.6244 65.9457 56.3853 65.837C56.1571 65.7175 55.9343 65.5219 55.717 65.2502L43.4105 49.537C43.4757 50.2542 43.5083 50.9171 43.5083 51.5256V66H39.6452V42.4302H41.9435C42.1282 42.4302 42.2858 42.4411 42.4162 42.4628C42.5575 42.4737 42.677 42.5063 42.7748 42.5606C42.8835 42.6041 42.9867 42.6747 43.0845 42.7725C43.1823 42.8594 43.291 42.979 43.4105 43.1311L55.7659 58.9095C55.7333 58.5292 55.7061 58.1543 55.6844 57.7848C55.6627 57.4153 55.6518 57.073 55.6518 56.7579V42.4302H59.5149ZM69.1648 45.9184V52.4547H77.4126V55.8288H69.1648V62.4955H79.6294V66H64.7638V42.4302H79.6294V45.9184H69.1648ZM87.9161 45.9184V52.4547H96.1639V55.8288H87.9161V62.4955H98.3807V66H83.5151V42.4302H98.3807V45.9184H87.9161ZM118.729 46.0325H111.623V66H107.238V46.0325H100.131V42.4302H118.729V46.0325ZM138.241 62.4629C139.088 62.4629 139.843 62.3216 140.506 62.0391C141.18 61.7566 141.745 61.3599 142.201 60.8492C142.658 60.3385 143.006 59.7191 143.245 58.991C143.495 58.2629 143.62 57.4479 143.62 56.546V42.4302H148.004V56.546C148.004 57.9478 147.776 59.2464 147.32 60.4417C146.874 61.6262 146.228 62.6531 145.38 63.5224C144.543 64.3809 143.522 65.0546 142.316 65.5436C141.109 66.0217 139.751 66.2608 138.241 66.2608C136.719 66.2608 135.355 66.0217 134.149 65.5436C132.943 65.0546 131.916 64.3809 131.069 63.5224C130.232 62.6531 129.585 61.6262 129.129 60.4417C128.683 59.2464 128.461 57.9478 128.461 56.546V42.4302H132.845V56.5297C132.845 57.4316 132.965 58.2466 133.204 58.9747C133.454 59.7028 133.807 60.3276 134.263 60.8492C134.731 61.3599 135.296 61.7566 135.959 62.0391C136.632 62.3216 137.393 62.4629 138.241 62.4629ZM172.379 54.1825V63.718C171.184 64.5982 169.907 65.2448 168.548 65.6577C167.201 66.0598 165.756 66.2608 164.213 66.2608C162.289 66.2608 160.545 65.962 158.98 65.3643C157.426 64.7666 156.095 63.9353 154.987 62.8704C153.889 61.8055 153.042 60.5341 152.444 59.0562C151.846 57.5783 151.547 55.9646 151.547 54.2151C151.547 52.4438 151.835 50.8193 152.411 49.3414C152.987 47.8635 153.802 46.5921 154.856 45.5272C155.921 44.4623 157.209 43.6364 158.719 43.0496C160.23 42.4628 161.925 42.1694 163.805 42.1694C164.761 42.1694 165.652 42.2455 166.478 42.3976C167.315 42.5497 168.087 42.7616 168.793 43.0333C169.51 43.2941 170.162 43.6147 170.749 43.995C171.336 44.3753 171.874 44.7937 172.363 45.2501L171.107 47.2387C170.912 47.5538 170.657 47.7494 170.341 47.8255C170.026 47.8907 169.684 47.8092 169.314 47.581C168.956 47.3745 168.597 47.1681 168.239 46.9616C167.88 46.7551 167.478 46.5758 167.032 46.4237C166.598 46.2716 166.103 46.1466 165.549 46.0488C165.006 45.951 164.376 45.9021 163.658 45.9021C162.496 45.9021 161.442 46.0977 160.496 46.4889C159.562 46.8801 158.763 47.4397 158.1 48.1678C157.437 48.8959 156.926 49.7706 156.568 50.7921C156.209 51.8136 156.03 52.9546 156.03 54.2151C156.03 55.5626 156.22 56.7688 156.6 57.8337C156.992 58.8878 157.535 59.7843 158.23 60.5232C158.937 61.2513 159.784 61.8109 160.773 62.2021C161.762 62.5824 162.865 62.7726 164.082 62.7726C164.952 62.7726 165.728 62.6802 166.413 62.4955C167.098 62.3108 167.766 62.0608 168.418 61.7457V57.4751H165.451C165.169 57.4751 164.946 57.399 164.783 57.2469C164.631 57.0839 164.555 56.8883 164.555 56.6601V54.1825H172.379Z" fill="black"/>
<path d="M164.458 218.148C164.61 218.148 164.742 218.208 164.854 218.328L165.97 219.54C165.266 220.388 164.402 221.044 163.378 221.508C162.354 221.964 161.13 222.192 159.706 222.192C158.442 222.192 157.298 221.976 156.274 221.544C155.258 221.104 154.39 220.496 153.67 219.72C152.95 218.936 152.394 218.004 152.002 216.924C151.618 215.844 151.426 214.656 151.426 213.36C151.426 212.064 151.63 210.876 152.038 209.796C152.454 208.708 153.034 207.776 153.778 207C154.53 206.216 155.426 205.608 156.466 205.176C157.514 204.744 158.666 204.528 159.922 204.528C161.17 204.528 162.27 204.732 163.222 205.14C164.182 205.54 165.014 206.076 165.718 206.748L164.794 208.056C164.73 208.144 164.654 208.22 164.566 208.284C164.478 208.348 164.358 208.38 164.206 208.38C164.046 208.38 163.862 208.308 163.654 208.164C163.454 208.012 163.194 207.848 162.874 207.672C162.562 207.488 162.166 207.324 161.686 207.18C161.214 207.028 160.622 206.952 159.91 206.952C159.086 206.952 158.33 207.096 157.642 207.384C156.954 207.672 156.362 208.092 155.866 208.644C155.37 209.196 154.982 209.868 154.702 210.66C154.43 211.452 154.294 212.352 154.294 213.36C154.294 214.376 154.438 215.284 154.726 216.084C155.014 216.876 155.41 217.548 155.914 218.1C156.418 218.644 157.01 219.06 157.69 219.348C158.37 219.636 159.102 219.78 159.886 219.78C160.366 219.78 160.794 219.756 161.17 219.708C161.554 219.652 161.906 219.568 162.226 219.456C162.546 219.336 162.846 219.188 163.126 219.012C163.414 218.836 163.698 218.62 163.978 218.364C164.138 218.22 164.298 218.148 164.458 218.148ZM172.95 209.568C173.854 209.568 174.67 209.716 175.398 210.012C176.134 210.308 176.758 210.728 177.27 211.272C177.79 211.816 178.19 212.476 178.47 213.252C178.75 214.028 178.89 214.9 178.89 215.868C178.89 216.836 178.75 217.708 178.47 218.484C178.19 219.26 177.79 219.924 177.27 220.476C176.758 221.02 176.134 221.44 175.398 221.736C174.67 222.032 173.854 222.18 172.95 222.18C172.038 222.18 171.214 222.032 170.478 221.736C169.75 221.44 169.126 221.02 168.606 220.476C168.086 219.924 167.686 219.26 167.406 218.484C167.126 217.708 166.986 216.836 166.986 215.868C166.986 214.9 167.126 214.028 167.406 213.252C167.686 212.476 168.086 211.816 168.606 211.272C169.126 210.728 169.75 210.308 170.478 210.012C171.214 209.716 172.038 209.568 172.95 209.568ZM172.95 220.164C174.054 220.164 174.874 219.796 175.41 219.06C175.954 218.316 176.226 217.256 176.226 215.88C176.226 214.504 175.954 213.444 175.41 212.7C174.874 211.948 174.054 211.572 172.95 211.572C171.83 211.572 170.998 211.948 170.454 212.7C169.91 213.444 169.638 214.504 169.638 215.88C169.638 217.256 169.91 218.316 170.454 219.06C170.998 219.796 171.83 220.164 172.95 220.164ZM181.369 222V209.76H182.929C183.281 209.76 183.505 209.924 183.601 210.252L183.769 211.32C183.993 211.064 184.225 210.832 184.465 210.624C184.705 210.408 184.961 210.224 185.233 210.072C185.513 209.912 185.809 209.788 186.121 209.7C186.441 209.612 186.785 209.568 187.153 209.568C187.545 209.568 187.905 209.624 188.233 209.736C188.561 209.848 188.849 210.008 189.097 210.216C189.353 210.424 189.573 210.676 189.757 210.972C189.941 211.268 190.093 211.6 190.213 211.968C190.397 211.544 190.629 211.18 190.909 210.876C191.189 210.572 191.501 210.324 191.845 210.132C192.189 209.94 192.553 209.8 192.937 209.712C193.329 209.616 193.725 209.568 194.125 209.568C194.781 209.568 195.365 209.672 195.877 209.88C196.397 210.088 196.833 210.392 197.185 210.792C197.545 211.184 197.817 211.668 198.001 212.244C198.185 212.82 198.277 213.476 198.277 214.212V222H195.697V214.212C195.697 213.348 195.509 212.7 195.133 212.268C194.765 211.828 194.217 211.608 193.489 211.608C193.161 211.608 192.853 211.664 192.565 211.776C192.277 211.888 192.025 212.052 191.809 212.268C191.593 212.484 191.421 212.756 191.293 213.084C191.173 213.404 191.113 213.78 191.113 214.212V222H188.533V214.212C188.533 213.316 188.353 212.66 187.993 212.244C187.633 211.82 187.105 211.608 186.409 211.608C185.929 211.608 185.485 211.732 185.077 211.98C184.669 212.22 184.293 212.552 183.949 212.976V222H181.369ZM203.979 209.76V222H201.399V209.76H203.979ZM204.411 206.064C204.411 206.296 204.363 206.516 204.267 206.724C204.179 206.932 204.055 207.116 203.895 207.276C203.735 207.428 203.547 207.552 203.331 207.648C203.123 207.736 202.899 207.78 202.659 207.78C202.427 207.78 202.207 207.736 201.999 207.648C201.799 207.552 201.623 207.428 201.471 207.276C201.319 207.116 201.195 206.932 201.099 206.724C201.011 206.516 200.967 206.296 200.967 206.064C200.967 205.824 201.011 205.6 201.099 205.392C201.195 205.184 201.319 205.004 201.471 204.852C201.623 204.692 201.799 204.568 201.999 204.48C202.207 204.384 202.427 204.336 202.659 204.336C202.899 204.336 203.123 204.384 203.331 204.48C203.547 204.568 203.735 204.692 203.895 204.852C204.055 205.004 204.179 205.184 204.267 205.392C204.363 205.6 204.411 205.824 204.411 206.064ZM209.632 211.38C209.896 211.108 210.168 210.864 210.448 210.648C210.736 210.424 211.04 210.232 211.36 210.072C211.68 209.912 212.02 209.788 212.38 209.7C212.74 209.612 213.132 209.568 213.556 209.568C214.228 209.568 214.816 209.68 215.32 209.904C215.832 210.128 216.26 210.444 216.604 210.852C216.956 211.26 217.22 211.752 217.396 212.328C217.572 212.896 217.66 213.524 217.66 214.212V222H215.092V214.212C215.092 213.388 214.9 212.748 214.516 212.292C214.14 211.836 213.564 211.608 212.788 211.608C212.212 211.608 211.676 211.74 211.18 212.004C210.692 212.268 210.232 212.628 209.8 213.084V222H207.22V209.76H208.78C209.132 209.76 209.356 209.924 209.452 210.252L209.632 211.38ZM225.042 215.772C225.842 215.772 226.442 215.568 226.842 215.16C227.242 214.752 227.442 214.22 227.442 213.564C227.442 212.892 227.242 212.36 226.842 211.968C226.442 211.576 225.842 211.38 225.042 211.38C224.25 211.38 223.65 211.576 223.242 211.968C222.842 212.36 222.642 212.892 222.642 213.564C222.642 213.884 222.694 214.18 222.798 214.452C222.902 214.724 223.054 214.96 223.254 215.16C223.454 215.352 223.702 215.504 223.998 215.616C224.302 215.72 224.65 215.772 225.042 215.772ZM228.63 222.6C228.63 222.328 228.55 222.112 228.39 221.952C228.238 221.784 228.03 221.656 227.766 221.568C227.502 221.472 227.194 221.404 226.842 221.364C226.49 221.316 226.114 221.284 225.714 221.268C225.322 221.244 224.918 221.224 224.502 221.208C224.094 221.184 223.698 221.144 223.314 221.088C222.93 221.288 222.614 221.528 222.366 221.808C222.126 222.088 222.006 222.412 222.006 222.78C222.006 223.02 222.066 223.244 222.186 223.452C222.314 223.66 222.506 223.84 222.762 223.992C223.026 224.144 223.358 224.264 223.758 224.352C224.166 224.44 224.654 224.484 225.222 224.484C226.358 224.484 227.21 224.308 227.778 223.956C228.346 223.604 228.63 223.152 228.63 222.6ZM231.222 210.204V211.164C231.222 211.484 231.03 211.68 230.646 211.752L229.422 211.956C229.63 212.42 229.734 212.936 229.734 213.504C229.734 214.104 229.614 214.648 229.374 215.136C229.142 215.624 228.818 216.04 228.402 216.384C227.986 216.728 227.49 216.992 226.914 217.176C226.338 217.36 225.714 217.452 225.042 217.452C224.786 217.452 224.534 217.44 224.286 217.416C224.046 217.384 223.81 217.344 223.578 217.296C223.346 217.432 223.174 217.576 223.062 217.728C222.95 217.88 222.894 218.036 222.894 218.196C222.894 218.46 223.01 218.656 223.242 218.784C223.474 218.912 223.778 219.004 224.154 219.06C224.538 219.116 224.974 219.152 225.462 219.168C225.95 219.184 226.446 219.212 226.95 219.252C227.454 219.292 227.95 219.36 228.438 219.456C228.926 219.544 229.358 219.696 229.734 219.912C230.118 220.12 230.426 220.404 230.658 220.764C230.89 221.124 231.006 221.592 231.006 222.168C231.006 222.696 230.874 223.212 230.61 223.716C230.346 224.22 229.962 224.668 229.458 225.06C228.962 225.452 228.354 225.764 227.634 225.996C226.914 226.236 226.094 226.356 225.174 226.356C224.262 226.356 223.466 226.268 222.786 226.092C222.114 225.916 221.55 225.676 221.094 225.372C220.646 225.076 220.31 224.732 220.086 224.34C219.87 223.948 219.762 223.54 219.762 223.116C219.762 222.54 219.942 222.048 220.302 221.64C220.67 221.232 221.166 220.912 221.79 220.68C221.454 220.52 221.182 220.3 220.974 220.02C220.774 219.74 220.674 219.372 220.674 218.916C220.674 218.556 220.806 218.18 221.07 217.788C221.334 217.396 221.73 217.064 222.258 216.792C221.65 216.456 221.17 216.012 220.818 215.46C220.466 214.9 220.29 214.248 220.29 213.504C220.29 212.896 220.406 212.348 220.638 211.86C220.878 211.372 221.21 210.956 221.634 210.612C222.058 210.268 222.558 210.004 223.134 209.82C223.718 209.636 224.354 209.544 225.042 209.544C226.098 209.544 227.018 209.764 227.802 210.204H231.222ZM248.752 207.672C248.664 207.816 248.572 207.924 248.476 207.996C248.38 208.06 248.26 208.092 248.116 208.092C247.964 208.092 247.792 208.028 247.6 207.9C247.416 207.772 247.184 207.632 246.904 207.48C246.632 207.32 246.308 207.176 245.932 207.048C245.556 206.912 245.108 206.844 244.588 206.844C244.108 206.844 243.684 206.904 243.316 207.024C242.956 207.144 242.652 207.312 242.404 207.528C242.156 207.744 241.968 208 241.84 208.296C241.72 208.584 241.66 208.9 241.66 209.244C241.66 209.684 241.776 210.052 242.008 210.348C242.24 210.636 242.544 210.884 242.92 211.092C243.304 211.3 243.74 211.484 244.228 211.644C244.716 211.796 245.212 211.96 245.716 212.136C246.228 212.312 246.728 212.512 247.216 212.736C247.704 212.96 248.136 213.244 248.512 213.588C248.896 213.932 249.204 214.352 249.436 214.848C249.668 215.344 249.784 215.948 249.784 216.66C249.784 217.428 249.652 218.148 249.388 218.82C249.124 219.492 248.74 220.08 248.236 220.584C247.74 221.08 247.124 221.472 246.388 221.76C245.66 222.048 244.828 222.192 243.892 222.192C243.34 222.192 242.8 222.136 242.272 222.024C241.752 221.92 241.252 221.772 240.772 221.58C240.3 221.38 239.856 221.14 239.44 220.86C239.024 220.58 238.652 220.268 238.324 219.924L239.14 218.58C239.212 218.468 239.304 218.38 239.416 218.316C239.528 218.252 239.652 218.22 239.788 218.22C239.972 218.22 240.176 218.308 240.4 218.484C240.624 218.652 240.892 218.84 241.204 219.048C241.524 219.248 241.908 219.436 242.356 219.612C242.804 219.78 243.34 219.864 243.964 219.864C244.98 219.864 245.764 219.616 246.316 219.12C246.876 218.624 247.156 217.94 247.156 217.068C247.156 216.58 247.04 216.184 246.808 215.88C246.576 215.568 246.268 215.308 245.884 215.1C245.508 214.892 245.076 214.716 244.588 214.572C244.1 214.428 243.604 214.276 243.1 214.116C242.596 213.948 242.1 213.756 241.612 213.54C241.124 213.316 240.688 213.028 240.304 212.676C239.928 212.316 239.624 211.876 239.392 211.356C239.16 210.828 239.044 210.172 239.044 209.388C239.044 208.764 239.164 208.16 239.404 207.576C239.652 206.992 240.008 206.476 240.472 206.028C240.944 205.572 241.524 205.208 242.212 204.936C242.9 204.664 243.684 204.528 244.564 204.528C245.556 204.528 246.464 204.684 247.288 204.996C248.12 205.308 248.836 205.752 249.436 206.328L248.752 207.672ZM257.583 209.568C258.487 209.568 259.303 209.716 260.031 210.012C260.767 210.308 261.391 210.728 261.903 211.272C262.423 211.816 262.823 212.476 263.103 213.252C263.383 214.028 263.523 214.9 263.523 215.868C263.523 216.836 263.383 217.708 263.103 218.484C262.823 219.26 262.423 219.924 261.903 220.476C261.391 221.02 260.767 221.44 260.031 221.736C259.303 222.032 258.487 222.18 257.583 222.18C256.671 222.18 255.847 222.032 255.111 221.736C254.383 221.44 253.759 221.02 253.239 220.476C252.719 219.924 252.319 219.26 252.039 218.484C251.759 217.708 251.619 216.836 251.619 215.868C251.619 214.9 251.759 214.028 252.039 213.252C252.319 212.476 252.719 211.816 253.239 211.272C253.759 210.728 254.383 210.308 255.111 210.012C255.847 209.716 256.671 209.568 257.583 209.568ZM257.583 220.164C258.687 220.164 259.507 219.796 260.043 219.06C260.587 218.316 260.859 217.256 260.859 215.88C260.859 214.504 260.587 213.444 260.043 212.7C259.507 211.948 258.687 211.572 257.583 211.572C256.463 211.572 255.631 211.948 255.087 212.7C254.543 213.444 254.271 214.504 254.271 215.88C254.271 217.256 254.543 218.316 255.087 219.06C255.631 219.796 256.463 220.164 257.583 220.164ZM271.294 209.568C272.198 209.568 273.014 209.716 273.742 210.012C274.478 210.308 275.102 210.728 275.614 211.272C276.134 211.816 276.534 212.476 276.814 213.252C277.094 214.028 277.234 214.9 277.234 215.868C277.234 216.836 277.094 217.708 276.814 218.484C276.534 219.26 276.134 219.924 275.614 220.476C275.102 221.02 274.478 221.44 273.742 221.736C273.014 222.032 272.198 222.18 271.294 222.18C270.382 222.18 269.558 222.032 268.822 221.736C268.094 221.44 267.47 221.02 266.95 220.476C266.43 219.924 266.03 219.26 265.75 218.484C265.47 217.708 265.33 216.836 265.33 215.868C265.33 214.9 265.47 214.028 265.75 213.252C266.03 212.476 266.43 211.816 266.95 211.272C267.47 210.728 268.094 210.308 268.822 210.012C269.558 209.716 270.382 209.568 271.294 209.568ZM271.294 220.164C272.398 220.164 273.218 219.796 273.754 219.06C274.298 218.316 274.57 217.256 274.57 215.88C274.57 214.504 274.298 213.444 273.754 212.7C273.218 211.948 272.398 211.572 271.294 211.572C270.174 211.572 269.342 211.948 268.798 212.7C268.254 213.444 267.982 214.504 267.982 215.88C267.982 217.256 268.254 218.316 268.798 219.06C269.342 219.796 270.174 220.164 271.294 220.164ZM282.125 211.38C282.389 211.108 282.661 210.864 282.941 210.648C283.229 210.424 283.533 210.232 283.853 210.072C284.173 209.912 284.513 209.788 284.873 209.7C285.233 209.612 285.625 209.568 286.049 209.568C286.721 209.568 287.309 209.68 287.813 209.904C288.325 210.128 288.753 210.444 289.097 210.852C289.449 211.26 289.713 211.752 289.889 212.328C290.065 212.896 290.153 213.524 290.153 214.212V222H287.585V214.212C287.585 213.388 287.393 212.748 287.009 212.292C286.633 211.836 286.057 211.608 285.281 211.608C284.705 211.608 284.169 211.74 283.673 212.004C283.185 212.268 282.725 212.628 282.293 213.084V222H279.713V209.76H281.273C281.625 209.76 281.849 209.924 281.945 210.252L282.125 211.38Z" fill="black"/>
<path d="M314 222.5C319.523 222.5 324 218.023 324 212.5C324 206.977 319.523 202.5 314 202.5C308.477 202.5 304 206.977 304 212.5C304 218.023 308.477 222.5 314 222.5Z" stroke="black" stroke-width="2" stroke-linejoin="round"/>
<path d="M314.004 206.5V212.505L318.243 216.745" stroke="black" stroke-width="2" stroke-linecap="round" stroke-linejoin="round"/>
<path d="M291.002 150.901C293.571 155.783 290.545 161.739 285.088 162.542L204.277 174.44C197.854 175.386 193.039 168.69 195.979 162.902L238.743 78.7246C241.684 72.9365 249.93 72.8767 252.955 78.6217L291.002 150.901Z" fill="#FFFFEA"/>
<path d="M100.112 181.797C99.3714 187.263 93.4507 190.358 88.5398 187.845L40.3694 163.196C34.5899 160.238 34.5543 151.991 40.308 148.984L95.7404 120.012C101.494 117.005 108.245 121.742 107.374 128.176L100.112 181.797Z" fill="#FFFFEA"/>
</svg>
